<svg width="38" height="38" viewBox="0 0 38 38" fill="none" xmlns="http://www.w3.org/2000/svg">
<path fill-rule="evenodd" clip-rule="evenodd" d="M26.6 1.9H11.4C6.1533 1.9 1.9 6.1533 1.9 11.4V26.6C1.9 31.8467 6.1533 36.1 11.4 36.1H26.6C31.8467 36.1 36.1 31.8467 36.1 26.6V11.4C36.1 6.1533 31.8467 1.9 26.6 1.9ZM11.4 0C5.10395 0 0 5.10395 0 11.4V26.6C0 32.896 5.10395 38 11.4 38H26.6C32.896 38 38 32.896 38 26.6V11.4C38 5.10395 32.896 0 26.6 0H11.4Z" fill="white"/>
<path d="M29.5408 13.4994C29.4156 13.0154 29.1701 12.574 28.8288 12.2195C28.4875 11.8649 28.0625 11.6095 27.5962 11.479C25.8799 11 19 11 19 11C19 11 12.1201 11 10.4038 11.4764C9.93733 11.6066 9.51207 11.8618 9.17073 12.2164C8.82939 12.571 8.58398 13.0126 8.45915 13.4968C8 15.2803 8 19 8 19C8 19 8 22.7197 8.45915 24.5006C8.71205 25.4841 9.45848 26.2586 10.4038 26.521C12.1201 27 19 27 19 27C19 27 25.8799 27 27.5962 26.521C28.544 26.2586 29.2879 25.4841 29.5408 24.5006C30 22.7197 30 19 30 19C30 19 30 15.2803 29.5408 13.4994ZM16.1714 22.3333V15.6667L22.4571 19L16.1714 22.3333Z" fill="white"/>
</svg>
