<svg width="16" height="17" viewBox="0 0 16 17" fill="none" xmlns="http://www.w3.org/2000/svg">
  <path
    d="M8.00018 0.4C5.67972 0.4 3.79163 2.28809 3.79163 4.60855C3.79163 6.92902 5.67972 8.8171 8.00018 8.8171C10.3206 8.8171 12.2087 6.92902 12.2087 4.60855C12.2087 2.28809 10.3206 0.4 8.00018 0.4ZM8.00018 7.37368C6.47553 7.37368 5.23505 6.1332 5.23505 4.60855C5.23505 3.0839 6.47553 1.84342 8.00018 1.84342C9.52483 1.84342 10.7653 3.0839 10.7653 4.60855C10.7653 6.1332 9.52483 7.37368 8.00018 7.37368ZM14.9739 16.6625C15.3725 16.6625 15.6956 16.3394 15.6956 15.9408C15.6956 12.6597 13.0247 9.98881 9.7436 9.98881H6.25676C2.97481 9.98881 0.304785 12.6597 0.304785 15.9408C0.304785 16.3394 0.627906 16.6625 1.02649 16.6625H14.9739ZM1.80216 15.2188L1.83884 15.0389C2.25782 12.9836 4.07917 11.4322 6.25676 11.4322H9.7436C11.9212 11.4322 13.7425 12.9836 14.1615 15.0389L14.1982 15.2188H1.80216Z"
    fill="white" stroke="white" stroke-width="0.2" />
</svg>