<svg width="24" height="24" fill="none" xmlns="http://www.w3.org/2000/svg"><path d="M18.017 12.825c-.177 0-.361-.056-.538-.096a7.575 7.575 0 01-1.052-.314 1.601 1.601 0 00-1.991.805l-.177.362a9.783 9.783 0 01-2.135-1.61 9.81 9.81 0 01-1.606-2.142l.337-.225a1.609 1.609 0 00.803-1.997 8.326 8.326 0 01-.313-1.055 5.975 5.975 0 01-.096-.548 2.418 2.418 0 00-.836-1.448c-.441-.368-1-.565-1.573-.557H6.43a2.403 2.403 0 00-1.83.82 2.418 2.418 0 00-.578 1.926 15.316 15.316 0 004.365 8.908A15.237 15.237 0 0017.286 20h.305A2.405 2.405 0 0020 17.576v-2.415a2.42 2.42 0 00-.575-1.524 2.407 2.407 0 00-1.408-.812zm.401 4.832a.807.807 0 01-.58.774.847.847 0 01-.351.031 13.633 13.633 0 01-7.938-3.921 13.704 13.704 0 01-3.872-7.98.88.88 0 01.2-.66.803.803 0 01.602-.274h2.41a.801.801 0 01.802.636c.032.22.072.437.12.652.093.425.217.842.37 1.248l-1.124.524a.803.803 0 00-.394 1.07 11.65 11.65 0 005.62 5.637.8.8 0 00.61 0 .802.802 0 00.458-.419l.498-1.127c.415.149.839.273 1.269.37.214.049.43.09.65.121a.803.803 0 01.634.806l.016 2.512z" fill="#fff"/></svg>