<svg width="24" height="24" viewBox="0 0 24 24" fill="none" xmlns="http://www.w3.org/2000/svg">
<path d="M11.8666 2.83325C9.95705 2.83325 8.12571 3.59182 6.77545 4.94208C5.42519 6.29233 4.66663 8.12368 4.66663 10.0332C4.66663 14.8932 11.0116 20.3832 11.2816 20.6172C11.4446 20.7566 11.6521 20.8333 11.8666 20.8333C12.0811 20.8333 12.2886 20.7566 12.4516 20.6172C12.7666 20.3832 19.0666 14.8932 19.0666 10.0332C19.0666 8.12368 18.308 6.29233 16.9578 4.94208C15.6075 3.59182 13.7762 2.83325 11.8666 2.83325ZM11.8666 18.7182C9.94961 16.9182 6.46662 13.0392 6.46662 10.0332C6.46662 8.60106 7.03555 7.22756 8.04824 6.21486C9.06093 5.20217 10.4344 4.63325 11.8666 4.63325C13.2988 4.63325 14.6723 5.20217 15.685 6.21486C16.6977 7.22756 17.2666 8.60106 17.2666 10.0332C17.2666 13.0392 13.7836 16.9272 11.8666 18.7182ZM11.8666 6.43324C11.1546 6.43324 10.4586 6.64438 9.86656 7.03995C9.27454 7.43552 8.81312 7.99776 8.54065 8.65557C8.26817 9.31338 8.19688 10.0372 8.33579 10.7356C8.47469 11.4339 8.81756 12.0753 9.32103 12.5788C9.82449 13.0823 10.466 13.4251 11.1643 13.564C11.8626 13.703 12.5864 13.6317 13.2443 13.3592C13.9021 13.0867 14.4643 12.6253 14.8599 12.0333C15.2555 11.4413 15.4666 10.7452 15.4666 10.0332C15.4666 9.07845 15.0873 8.16278 14.4122 7.48765C13.737 6.81252 12.8214 6.43324 11.8666 6.43324ZM11.8666 11.8332C11.5106 11.8332 11.1626 11.7277 10.8666 11.5299C10.5706 11.3321 10.3399 11.051 10.2036 10.7221C10.0674 10.3932 10.0317 10.0312 10.1012 9.68207C10.1706 9.3329 10.3421 9.01217 10.5938 8.76044C10.8455 8.50871 11.1663 8.33727 11.5154 8.26782C11.8646 8.19837 12.2265 8.23401 12.5554 8.37025C12.8843 8.50649 13.1655 8.7372 13.3632 9.03321C13.561 9.32921 13.6666 9.67722 13.6666 10.0332C13.6666 10.5106 13.477 10.9685 13.1394 11.306C12.8018 11.6436 12.344 11.8332 11.8666 11.8332Z" fill="white"/>
</svg>
