<?xml version="1.0" encoding="utf-8"?><svg viewBox="0 0 34 24" xmlns="http://www.w3.org/2000/svg" xmlns:xlink="http://www.w3.org/1999/xlink"><style>:root>svg{display:none}:root>svg:target{display:block}</style><svg fill="none" viewBox="0 0 34 22" id="ic-arrow" xmlns="http://www.w3.org/2000/svg"><path d="M32.42 9.58l-8-8a2.009 2.009 0 00-2.84 2.84L26.18 9H3a2 2 0 100 4h23.18l-4.6 4.58a2 2 0 000 2.84 1.999 1.999 0 002.84 0l8-8a2 2 0 00.42-.66 2 2 0 000-1.52 2 2 0 00-.42-.66z" fill="#000" stroke="#fff" stroke-width="1.4"/></svg><svg fill="none" viewBox="0 0 24 24" id="ic_map-marker" xmlns="http://www.w3.org/2000/svg"><path d="M11.867 2.833a7.2 7.2 0 00-7.2 7.2c0 4.86 6.345 10.35 6.615 10.584a.9.9 0 001.17 0c.315-.234 6.615-5.724 6.615-10.584a7.2 7.2 0 00-7.2-7.2zm0 15.885c-1.917-1.8-5.4-5.679-5.4-8.685a5.4 5.4 0 0110.8 0c0 3.006-3.483 6.894-5.4 8.685zm0-12.285a3.6 3.6 0 100 7.2 3.6 3.6 0 000-7.2zm0 5.4a1.8 1.8 0 110-3.6 1.8 1.8 0 010 3.6z" fill="#fff"/></svg><svg fill="none" viewBox="0 0 24 24" id="ic_outgoing-call.min" xmlns="http://www.w3.org/2000/svg"><path d="M18.017 12.825c-.177 0-.361-.056-.538-.096a7.575 7.575 0 01-1.052-.314 1.601 1.601 0 00-1.991.805l-.177.362a9.783 9.783 0 01-2.135-1.61 9.81 9.81 0 01-1.606-2.142l.337-.225a1.609 1.609 0 00.803-1.997 8.326 8.326 0 01-.313-1.055 5.975 5.975 0 01-.096-.548 2.418 2.418 0 00-.836-1.448c-.441-.368-1-.565-1.573-.557H6.43a2.403 2.403 0 00-1.83.82 2.418 2.418 0 00-.578 1.926 15.316 15.316 0 004.365 8.908A15.237 15.237 0 0017.286 20h.305A2.405 2.405 0 0020 17.576v-2.415a2.42 2.42 0 00-.575-1.524 2.407 2.407 0 00-1.408-.812zm.401 4.832a.807.807 0 01-.58.774.847.847 0 01-.351.031 13.633 13.633 0 01-7.938-3.921 13.704 13.704 0 01-3.872-7.98.88.88 0 01.2-.66.803.803 0 01.602-.274h2.41a.801.801 0 01.802.636 8.987 8.987 0 00.49 1.9l-1.124.524a.803.803 0 00-.394 1.07 11.65 11.65 0 005.62 5.637.8.8 0 00.61 0 .802.802 0 00.458-.419l.498-1.127c.415.149.839.273 1.269.37.214.049.43.09.65.121a.803.803 0 01.634.806l.016 2.512z" fill="#fff"/></svg></svg>