<svg width="70" height="70" viewBox="0 0 70 70" fill="none" xmlns="http://www.w3.org/2000/svg">
<path d="M54.414 0H15.586C6.9781 0 0 6.9781 0 15.586V54.414C0 63.0219 6.9781 70 15.586 70H54.414C63.0219 70 70 63.0219 70 54.414V15.586C70 6.9781 63.0219 0 54.414 0Z" fill="#67B23C"/>
<path d="M13.7231 21.1816L15.2131 11.0527H17.0047L15.0889 23.4699H12.1804L10.2646 11.0527H12.2337L13.7231 21.1816Z" fill="white"/>
<path d="M18.2289 14.0328C18.1729 13.1988 18.4289 12.3737 18.9473 11.7179C19.2263 11.4349 19.5636 11.216 19.9357 11.0766C20.3079 10.9372 20.706 10.8806 21.1022 10.9107C21.4986 10.8807 21.8967 10.9373 22.269 11.0767C22.6412 11.2161 22.9787 11.4349 23.2578 11.7179C23.7759 12.3739 24.0318 13.1988 23.9761 14.0328V14.4231H22.1313V13.9087C22.1645 13.5714 22.0731 13.2337 21.8744 12.9593C21.6768 12.7824 21.4209 12.6845 21.1557 12.6845C20.8905 12.6845 20.6346 12.7824 20.4371 12.9593C20.238 13.2336 20.1466 13.5714 20.1801 13.9087C20.1722 14.3026 20.2703 14.6915 20.4639 15.0347C20.6613 15.3704 20.8996 15.6804 21.1735 15.9574C21.4576 16.2473 21.7621 16.537 22.087 16.8266C22.4151 17.1194 22.7205 17.4367 23.0005 17.7758C23.2913 18.1304 23.5302 18.5245 23.7101 18.9463C23.9092 19.4359 24.0058 19.9611 23.9939 20.4896C24.0497 21.3265 23.7867 22.1536 23.2577 22.8045C22.9744 23.0867 22.6338 23.3048 22.2589 23.4441C21.8841 23.5834 21.4837 23.6405 21.0848 23.6117C20.6859 23.6405 20.2854 23.5834 19.9104 23.4441C19.5354 23.3049 19.1947 23.0867 18.9113 22.8045C18.3823 22.1536 18.1194 21.3265 18.1757 20.4896V19.7268H20.02V20.6137C19.9838 20.9512 20.0829 21.2893 20.2954 21.5539C20.5021 21.7259 20.7625 21.8201 21.0314 21.8201C21.3003 21.8201 21.5607 21.7259 21.7673 21.5539C21.9799 21.2893 22.0789 20.9512 22.0428 20.6137C22.0505 20.2196 21.9524 19.8306 21.7586 19.4872C21.5613 19.1515 21.323 18.8416 21.0491 18.5648C20.7656 18.2749 20.4611 17.985 20.1355 17.6952C19.8074 17.4025 19.5021 17.0854 19.222 16.7464C18.9313 16.3917 18.6924 15.9976 18.5125 15.5757C18.3133 15.0862 18.2168 14.5611 18.2289 14.0328Z" fill="white"/>
<path d="M27.63 16.2852H30.3085V18.0591H27.63V21.6955H31.0003V23.4694H25.6787V11.0522H31.0003V12.8261H27.63V16.2852Z" fill="white"/>
<path d="M13.6522 28.7914C14.0518 28.7592 14.4536 28.8121 14.8313 28.9466C15.2089 29.0811 15.5537 29.294 15.8431 29.5715C16.364 30.2155 16.621 31.0334 16.5619 31.8598V33.474C16.6212 34.3003 16.3642 35.1183 15.8431 35.7623C15.5537 36.0397 15.2089 36.2527 14.8313 36.3872C14.4537 36.5217 14.0518 36.5746 13.6522 36.5424H12.7298V41.2081H10.7786V28.7909L13.6522 28.7914ZM12.7298 30.5652V34.769H13.6522C13.7811 34.7775 13.9104 34.7598 14.0324 34.7172C14.1543 34.6745 14.2663 34.6077 14.3618 34.5206C14.5583 34.2557 14.6471 33.926 14.6101 33.5982V31.7356C14.647 31.4078 14.5582 31.0782 14.3618 30.8132C14.2663 30.7262 14.1543 30.6594 14.0324 30.6167C13.9104 30.574 13.7811 30.5564 13.6522 30.5649L12.7298 30.5652Z" fill="white"/>
<path d="M22.2024 41.2086C22.1787 41.1259 22.1551 41.049 22.1319 40.9777C22.1041 40.8909 22.0833 40.8021 22.0696 40.7121C22.0492 40.5769 22.0375 40.4405 22.0344 40.3038C22.028 40.1382 22.0249 39.9313 22.0251 39.6829V37.7317C22.0658 37.3013 21.9595 36.8699 21.7235 36.5077C21.5971 36.3803 21.4441 36.2824 21.2755 36.221C21.1068 36.1597 20.9266 36.1364 20.7479 36.1529H20.0738V41.2085H18.1226V28.7913H21.0669C21.4639 28.7547 21.8641 28.7987 22.2437 28.9206C22.6232 29.0425 22.9742 29.2399 23.2756 29.5009C23.7744 30.0999 24.0196 30.8701 23.9587 31.6473V32.6225C23.9587 33.8997 23.533 34.7395 22.6815 35.1419C22.9108 35.2255 23.12 35.3563 23.2957 35.5258C23.4713 35.6953 23.6095 35.8997 23.7013 36.1258C23.8977 36.6563 23.991 37.2194 23.9761 37.7848V39.7006C23.9745 39.9699 23.9864 40.2392 24.012 40.5073C24.0381 40.7481 24.0978 40.9841 24.1893 41.2083L22.2024 41.2086ZM20.0737 30.5654V34.3792H20.8365C21.149 34.3978 21.4568 34.2962 21.6969 34.0954C21.8156 33.9539 21.9043 33.7897 21.9576 33.6128C22.0109 33.4359 22.0277 33.2501 22.0069 33.0665V31.8427C22.0356 31.5001 21.9516 31.1576 21.7679 30.867C21.6743 30.7615 21.5575 30.6793 21.4265 30.627C21.2956 30.5746 21.1542 30.5536 21.0137 30.5655L20.0737 30.5654Z" fill="white"/>
<path d="M25.6613 31.7717C25.6048 30.9302 25.8784 30.0998 26.4241 29.4567C26.7139 29.1757 27.0594 28.9586 27.4384 28.8195C27.8174 28.6804 28.2214 28.6225 28.6241 28.6495C29.0269 28.6226 29.4308 28.6805 29.8097 28.8195C30.1886 28.9586 30.5341 29.1757 30.8238 29.4567C31.3692 30.0999 31.6428 30.9302 31.5865 31.7717V38.2286C31.6428 39.07 31.3692 39.9003 30.8238 40.5435C30.5341 40.8246 30.1886 41.0417 29.8097 41.1807C29.4308 41.3198 29.0269 41.3777 28.6241 41.3507C28.2214 41.3777 27.8174 41.3198 27.4384 41.1807C27.0594 41.0417 26.7139 40.8246 26.4241 40.5435C25.8784 39.9004 25.6048 39.0701 25.6613 38.2286V31.7717ZM27.613 38.3528C27.578 38.6927 27.6766 39.0329 27.8879 39.3015C28.092 39.4791 28.3533 39.5769 28.6238 39.5769C28.8944 39.5769 29.1557 39.4791 29.3598 39.3015C29.5713 39.033 29.6701 38.6928 29.6353 38.3528V31.6475C29.67 31.3073 29.5712 30.9669 29.3598 30.6982C29.1556 30.5209 28.8942 30.4233 28.6238 30.4233C28.3534 30.4233 28.0921 30.5209 27.8879 30.6982C27.6767 30.967 27.5781 31.3074 27.613 31.6475V38.3528Z" fill="white"/>
<path d="M13.7231 56.6591L15.2131 46.5303H17.0047L15.0889 58.9474H12.1804L10.2646 46.5303H12.2337L13.7231 56.6591Z" fill="white"/>
<path d="M18.4773 46.5303H20.4286V58.9474H18.4773V46.5303Z" fill="white"/>
<path d="M22.4148 46.5301H25.5013C25.9009 46.498 26.3027 46.5509 26.6803 46.6854C27.0579 46.8198 27.4028 47.0328 27.6921 47.3102C28.2127 47.9545 28.4694 48.7723 28.4104 49.5985V55.8781C28.4696 56.7043 28.2129 57.5222 27.6921 58.1664C27.4029 58.444 27.0581 58.6571 26.6805 58.7917C26.3028 58.9262 25.9009 58.9791 25.5013 58.9469H22.4148V46.5301ZM24.3661 48.304V57.1734H25.4659C25.5988 57.1806 25.7318 57.1608 25.8568 57.115C25.9818 57.0693 26.0963 56.9986 26.1932 56.9073C26.3994 56.6398 26.4947 56.3031 26.4592 55.9672V49.5103C26.4947 49.1743 26.3994 48.8376 26.1932 48.5701C26.0963 48.4787 25.9819 48.408 25.8569 48.3622C25.7319 48.3165 25.5988 48.2967 25.4659 48.304H24.3661Z" fill="white"/>
<path d="M32.1705 58.9474H30.2192V46.5303H32.1705V51.8519H34.3879V46.5303H36.3746V58.9474H34.3879V53.6258H32.1705V58.9474Z" fill="white"/>
<path d="M38.2014 49.5102C38.1449 48.6688 38.4185 47.8384 38.9641 47.1953C39.5786 46.6742 40.3581 46.3882 41.1638 46.3882C41.9694 46.3882 42.7489 46.6742 43.3634 47.1953C43.9088 47.8385 44.1824 48.6688 44.1261 49.5102V55.9672C44.1824 56.8086 43.9088 57.6389 43.3634 58.2821C42.7489 58.8032 41.9694 59.0892 41.1638 59.0892C40.3581 59.0892 39.5786 58.8032 38.9641 58.2821C38.4185 57.639 38.1449 56.8086 38.2014 55.9672V49.5102ZM40.1531 56.0913C40.1181 56.4313 40.2166 56.7715 40.428 57.0401C40.632 57.2177 40.8934 57.3155 41.1639 57.3155C41.4344 57.3155 41.6958 57.2177 41.8998 57.0401C42.1113 56.7716 42.2101 56.4313 42.1753 56.0913V49.3861C42.21 49.0459 42.1113 48.7055 41.8998 48.4367C41.6956 48.2595 41.4343 48.1619 41.1639 48.1619C40.8935 48.1619 40.6322 48.2595 40.428 48.4367C40.2167 48.7056 40.1182 49.046 40.1531 49.3861V56.0913Z" fill="white"/>
<path d="M45.9534 46.5301H49.0399C49.4395 46.498 49.8413 46.5509 50.2189 46.6853C50.5966 46.8198 50.9414 47.0328 51.2307 47.3102C51.7513 47.9545 52.008 48.7723 51.9491 49.5985V55.8781C52.0082 56.7043 51.7515 57.5222 51.2307 58.1664C50.9415 58.444 50.5967 58.6571 50.2191 58.7917C49.8414 58.9262 49.4395 58.9791 49.0399 58.9469H45.9534V46.5301ZM47.9046 48.304V57.1734H49.0044C49.1373 57.1806 49.2703 57.1607 49.3952 57.115C49.5202 57.0692 49.6346 56.9986 49.7314 56.9073C49.9377 56.6398 50.033 56.3031 49.9975 55.9672V49.5103C50.033 49.1743 49.9377 48.8376 49.7314 48.5701C49.6347 48.4787 49.5203 48.408 49.3953 48.3623C49.2703 48.3165 49.1373 48.2967 49.0044 48.304H47.9046Z" fill="white"/>
<path d="M55.3187 54.832L52.853 46.5303H54.893L56.383 52.1885L57.8731 46.5303H59.7353L57.2696 54.832V58.9474H55.3184L55.3187 54.832Z" fill="white"/>
<path d="M48.5636 29.3477V34.347L43.1984 34.4524C43.1984 34.4524 41.6463 33.677 41.5186 32.5145C41.3899 31.3505 42.877 29.3477 42.877 29.3477H48.5636Z" fill="white"/>
<path d="M40.9359 33.023C40.1958 31.7572 37.8357 27.7331 37.8357 27.7331C37.7411 27.3552 37.7245 26.9621 37.7869 26.5776C37.8493 26.1932 37.9893 25.8254 38.1985 25.4969C38.598 24.954 38.9611 24.3853 39.2855 23.7944L37.6357 22.2407L43.2365 22.5002L45.8878 27.3843L44.1686 26.3771C44.1686 26.3771 40.0966 30.7708 40.9359 33.023Z" fill="white"/>
<path d="M52.3311 23.3562L56.1609 20.1401L59.689 24.1815C59.689 24.1815 60.0926 25.8667 59.285 26.7147C58.4775 27.5587 55.9847 27.7106 55.9847 27.7106L52.3311 23.3562Z" fill="white"/>
<path d="M60.0474 26.8321C59.5561 28.2132 57.9912 32.609 57.9912 32.609C57.7627 32.9245 57.4722 33.19 57.1375 33.3893C56.8028 33.5886 56.431 33.7174 56.0447 33.768C55.3711 33.811 54.7012 33.8992 54.0394 34.032L53.9152 36.2941L50.5098 31.8341L52.5474 26.6655L52.8791 28.6313C52.8791 28.6313 58.8609 28.9241 60.0474 26.8321Z" fill="white"/>
<path d="M45.2629 21.8742L40.8904 19.4461L43.4016 14.7059C43.4016 14.7059 44.8331 13.7263 45.9137 14.1791C46.9907 14.6313 48.0221 16.9023 48.0221 16.9023L45.2629 21.8742Z" fill="white"/>
<path d="M45.7527 13.4229C47.2186 13.3904 51.8813 13.2817 51.8813 13.2817C52.2578 13.3821 52.6098 13.5584 52.9158 13.7996C53.2218 14.0409 53.4752 14.3421 53.6607 14.6848C53.9403 15.2991 54.2615 15.8936 54.6221 16.4641L56.7803 15.7738L53.8335 20.5475L48.275 20.4884L49.9907 19.4758C49.9907 19.4758 48.1283 13.7856 45.7527 13.4229Z" fill="white"/>
</svg>
