<svg width="70" height="70" viewBox="0 0 70 70" fill="none" xmlns="http://www.w3.org/2000/svg">
<path d="M54.414 0H15.586C6.9781 0 0 6.9781 0 15.586V54.414C0 63.0219 6.9781 70 15.586 70H54.414C63.0219 70 70 63.0219 70 54.414V15.586C70 6.9781 63.0219 0 54.414 0Z" fill="white"/>
<path d="M13.7231 21.1813L15.2132 11.0525H17.0048L15.089 23.4696H12.1805L10.2647 11.0525H12.2337L13.7231 21.1813Z" fill="#1C1C30"/>
<path d="M18.2289 14.0328C18.1729 13.1988 18.4289 12.3737 18.9473 11.7179C19.2263 11.4349 19.5636 11.216 19.9357 11.0766C20.3079 10.9372 20.706 10.8806 21.1022 10.9107C21.4986 10.8807 21.8967 10.9373 22.269 11.0767C22.6412 11.2161 22.9787 11.4349 23.2578 11.7179C23.7759 12.3739 24.0318 13.1988 23.9761 14.0328V14.4231H22.1313V13.9087C22.1645 13.5714 22.0731 13.2337 21.8744 12.9593C21.6768 12.7824 21.4209 12.6845 21.1557 12.6845C20.8905 12.6845 20.6346 12.7824 20.4371 12.9593C20.238 13.2336 20.1466 13.5714 20.1801 13.9087C20.1722 14.3026 20.2703 14.6915 20.4639 15.0347C20.6613 15.3704 20.8996 15.6804 21.1735 15.9574C21.4576 16.2473 21.7621 16.537 22.087 16.8266C22.4151 17.1194 22.7205 17.4367 23.0005 17.7758C23.2913 18.1304 23.5302 18.5245 23.7101 18.9463C23.9092 19.4359 24.0058 19.9611 23.9939 20.4896C24.0497 21.3265 23.7867 22.1536 23.2577 22.8045C22.9744 23.0867 22.6338 23.3048 22.2589 23.4441C21.8841 23.5834 21.4837 23.6405 21.0848 23.6117C20.6859 23.6405 20.2854 23.5834 19.9104 23.4441C19.5354 23.3049 19.1947 23.0867 18.9113 22.8045C18.3823 22.1536 18.1194 21.3265 18.1757 20.4896V19.7268H20.02V20.6137C19.9838 20.9512 20.0829 21.2893 20.2954 21.5539C20.5021 21.7259 20.7625 21.8201 21.0314 21.8201C21.3003 21.8201 21.5607 21.7259 21.7673 21.5539C21.9799 21.2893 22.0789 20.9512 22.0428 20.6137C22.0505 20.2196 21.9524 19.8306 21.7586 19.4872C21.5613 19.1515 21.323 18.8416 21.0491 18.5648C20.7656 18.2749 20.4611 17.985 20.1355 17.6952C19.8074 17.4025 19.5021 17.0854 19.222 16.7464C18.9313 16.3917 18.6924 15.9976 18.5125 15.5757C18.3133 15.0862 18.2168 14.5611 18.2289 14.0328V14.0328Z" fill="#1C1C30"/>
<path d="M27.63 16.2852H30.3086V18.0591H27.63V21.6955H31.0004V23.4694H25.6788V11.0522H31.0004V12.8261H27.63V16.2852Z" fill="#1C1C30"/>
<path d="M13.6524 28.7915C14.0519 28.7593 14.4538 28.8122 14.8314 28.9467C15.209 29.0812 15.5538 29.2941 15.8432 29.5716C16.3642 30.2157 16.6211 31.0336 16.5621 31.8599V33.4741C16.6213 34.3004 16.3644 35.1184 15.8432 35.7624C15.5539 36.0399 15.209 36.2528 14.8314 36.3873C14.4538 36.5218 14.0519 36.5747 13.6524 36.5426H12.73V41.2082H10.7787V28.7911L13.6524 28.7915ZM12.73 30.5654V34.7691H13.6524C13.7813 34.7776 13.9106 34.76 14.0325 34.7173C14.1544 34.6746 14.2665 34.6078 14.3619 34.5208C14.5584 34.2558 14.6472 33.9262 14.6103 33.5983V31.7358C14.6471 31.408 14.5583 31.0784 14.3619 30.8133C14.2665 30.7263 14.1544 30.6595 14.0325 30.6168C13.9106 30.5741 13.7813 30.5565 13.6524 30.565L12.73 30.5654Z" fill="#1C1C30"/>
<path d="M22.2025 41.2085C22.1788 41.1257 22.1552 41.0489 22.1321 40.9776C22.1043 40.8908 22.0834 40.802 22.0697 40.712C22.0493 40.5767 22.0376 40.4404 22.0345 40.3037C22.0281 40.1381 22.025 39.9311 22.0252 39.6828V37.7315C22.0659 37.3012 21.9596 36.8697 21.7237 36.5076C21.5973 36.3801 21.4442 36.2822 21.2756 36.2209C21.1069 36.1596 20.9267 36.1363 20.748 36.1528H20.0739V41.2083H18.1227V28.7912H21.067C21.464 28.7546 21.8643 28.7986 22.2438 28.9205C22.6234 29.0424 22.9744 29.2398 23.2757 29.5007C23.7746 30.0998 24.0197 30.87 23.9589 31.6471V32.6224C23.9589 33.8996 23.5331 34.7394 22.6817 35.1417C22.9109 35.2254 23.1202 35.3562 23.2958 35.5257C23.4714 35.6952 23.6096 35.8996 23.7014 36.1257C23.8978 36.6562 23.9911 37.2192 23.9762 37.7847V39.7005C23.9746 39.9698 23.9866 40.2391 24.0121 40.5072C24.0382 40.748 24.0979 40.9839 24.1895 41.2082L22.2025 41.2085ZM20.0738 30.5652V34.3791H20.8366C21.1491 34.3977 21.4569 34.2961 21.697 34.0953C21.8157 33.9537 21.9044 33.7895 21.9577 33.6127C22.011 33.4358 22.0278 33.25 22.0071 33.0664V31.8426C22.0357 31.5 21.9518 31.1574 21.768 30.8669C21.6745 30.7614 21.5576 30.6792 21.4266 30.6268C21.2957 30.5745 21.1544 30.5534 21.0139 30.5654L20.0738 30.5652Z" fill="#1C1C30"/>
<path d="M25.6613 31.7714C25.6048 30.9299 25.8784 30.0996 26.4241 29.4565C26.7138 29.1754 27.0594 28.9583 27.4383 28.8193C27.8173 28.6802 28.2213 28.6223 28.6241 28.6493C29.0268 28.6223 29.4307 28.6802 29.8096 28.8193C30.1885 28.9583 30.534 29.1754 30.8237 29.4565C31.3691 30.0997 31.6427 30.93 31.5865 31.7714V38.2283C31.6427 39.0698 31.3691 39.9001 30.8237 40.5432C30.534 40.8243 30.1885 41.0414 29.8096 41.1805C29.4307 41.3195 29.0268 41.3774 28.6241 41.3505C28.2213 41.3775 27.8173 41.3196 27.4383 41.1805C27.0594 41.0414 26.7138 40.8243 26.4241 40.5432C25.8784 39.9002 25.6048 39.0698 25.6613 38.2283V31.7714ZM27.613 38.3525C27.578 38.6924 27.6765 39.0327 27.8879 39.3012C28.0919 39.4788 28.3533 39.5767 28.6238 39.5767C28.8943 39.5767 29.1557 39.4788 29.3597 39.3012C29.5712 39.0328 29.67 38.6925 29.6352 38.3525V31.6472C29.6699 31.3071 29.5712 30.9667 29.3597 30.6979C29.1555 30.5207 28.8942 30.4231 28.6238 30.4231C28.3534 30.4231 28.0921 30.5207 27.8879 30.6979C27.6766 30.9668 27.5781 31.3071 27.613 31.6472V38.3525Z" fill="#1C1C30"/>
<path d="M13.7231 56.659L15.2132 46.5302H17.0048L15.089 58.9473H12.1805L10.2647 46.5302H12.2337L13.7231 56.659Z" fill="#1C1C30"/>
<path d="M18.4772 46.5302H20.4285V58.9473H18.4772V46.5302Z" fill="#1C1C30"/>
<path d="M22.4147 46.5303H25.5013C25.9008 46.4981 26.3027 46.551 26.6803 46.6855C27.0579 46.8199 27.4027 47.0329 27.692 47.3103C28.2126 47.9546 28.4693 48.7724 28.4104 49.5987V55.8782C28.4695 56.7044 28.2128 57.5223 27.692 58.1665C27.4028 58.4441 27.058 58.6572 26.6804 58.7918C26.3028 58.9263 25.9009 58.9792 25.5013 58.947H22.4147V46.5303ZM24.366 48.3041V57.1735H25.4658C25.5987 57.1807 25.7317 57.1609 25.8568 57.1151C25.9818 57.0694 26.0962 56.9987 26.1931 56.9074C26.3993 56.6399 26.4946 56.3032 26.4592 55.9673V49.5104C26.4946 49.1744 26.3993 48.8377 26.1931 48.5702C26.0963 48.4788 25.9819 48.4081 25.8568 48.3623C25.7318 48.3166 25.5987 48.2968 25.4658 48.3041H24.366Z" fill="#1C1C30"/>
<path d="M32.1704 58.9473H30.2192V46.5302H32.1704V51.8518H34.3878V46.5302H36.3745V58.9473H34.3878V53.6257H32.1704V58.9473Z" fill="#1C1C30"/>
<path d="M38.2014 49.5104C38.1449 48.6689 38.4186 47.8385 38.9642 47.1954C39.5787 46.6743 40.3582 46.3883 41.1638 46.3883C41.9695 46.3883 42.749 46.6743 43.3634 47.1954C43.9089 47.8386 44.1825 48.6689 44.1262 49.5104V55.9673C44.1825 56.8087 43.9089 57.639 43.3634 58.2822C42.749 58.8033 41.9695 59.0893 41.1638 59.0893C40.3582 59.0893 39.5787 58.8033 38.9642 58.2822C38.4186 57.6391 38.1449 56.8087 38.2014 55.9673V49.5104ZM40.1531 56.0914C40.1181 56.4314 40.2167 56.7716 40.428 57.0402C40.6321 57.2178 40.8934 57.3156 41.1639 57.3156C41.4344 57.3156 41.6958 57.2178 41.8999 57.0402C42.1114 56.7717 42.2102 56.4315 42.1754 56.0914V49.3862C42.2101 49.046 42.1113 48.7056 41.8999 48.4369C41.6957 48.2596 41.4343 48.162 41.1639 48.162C40.8935 48.162 40.6322 48.2596 40.428 48.4369C40.2168 48.7057 40.1182 49.0461 40.1531 49.3862V56.0914Z" fill="#1C1C30"/>
<path d="M45.9533 46.5303H49.0399C49.4394 46.4981 49.8413 46.551 50.2189 46.6855C50.5965 46.8199 50.9413 47.0329 51.2307 47.3103C51.7512 47.9546 52.008 48.7724 51.949 49.5987V55.8782C52.0082 56.7044 51.7514 57.5223 51.2307 58.1665C50.9415 58.4441 50.5966 58.6573 50.219 58.7918C49.8414 58.9263 49.4395 58.9792 49.0399 58.947H45.9533V46.5303ZM47.9046 48.3041V57.1735H49.0044C49.1373 57.1807 49.2702 57.1608 49.3952 57.1151C49.5201 57.0694 49.6345 56.9987 49.7314 56.9075C49.9376 56.6399 50.0329 56.3032 49.9975 55.9673V49.5104C50.0329 49.1744 49.9376 48.8378 49.7314 48.5702C49.6346 48.4789 49.5202 48.4081 49.3953 48.3624C49.2703 48.3167 49.1373 48.2968 49.0044 48.3041H47.9046Z" fill="#1C1C30"/>
<path d="M55.3187 54.8319L52.853 46.5302H54.893L56.3831 52.1884L57.8731 46.5302H59.7353L57.2696 54.8319V58.9473H55.3184L55.3187 54.8319Z" fill="#1C1C30"/>
<path d="M48.5636 29.3478V34.3471L43.1984 34.4525C43.1984 34.4525 41.6463 33.6771 41.5186 32.5146C41.3899 31.3506 42.877 29.3478 42.877 29.3478H48.5636Z" fill="#1C1C30"/>
<path d="M40.9359 33.0229C40.1957 31.7571 37.8356 27.7329 37.8356 27.7329C37.741 27.3551 37.7245 26.962 37.7868 26.5775C37.8492 26.193 37.9892 25.8253 38.1984 25.4967C38.598 24.9539 38.9611 24.3852 39.2854 23.7943L37.6357 22.2406L43.2364 22.5001L45.8878 27.3842L44.1686 26.3769C44.1686 26.3769 40.0965 30.7707 40.9359 33.0229Z" fill="#1C1C30"/>
<path d="M52.3311 23.3562L56.161 20.1401L59.6891 24.1815C59.6891 24.1815 60.0927 25.8667 59.2851 26.7147C58.4776 27.5587 55.9847 27.7106 55.9847 27.7106L52.3311 23.3562Z" fill="#1C1C30"/>
<path d="M60.0474 26.8321C59.556 28.2132 57.9912 32.609 57.9912 32.609C57.7627 32.9245 57.4722 33.19 57.1375 33.3893C56.8028 33.5886 56.4309 33.7174 56.0447 33.768C55.3711 33.811 54.7011 33.8992 54.0393 34.032L53.9151 36.2941L50.5097 31.8341L52.5473 26.6655L52.879 28.6313C52.879 28.6313 58.8608 28.9241 60.0474 26.8321Z" fill="#1C1C30"/>
<path d="M45.2629 21.874L40.8904 19.4458L43.4016 14.7057C43.4016 14.7057 44.8331 13.7261 45.9137 14.1788C46.9907 14.6311 48.0221 16.9021 48.0221 16.9021L45.2629 21.874Z" fill="#1C1C30"/>
<path d="M45.7527 13.4228C47.2186 13.3903 51.8813 13.2816 51.8813 13.2816C52.2578 13.382 52.6098 13.5583 52.9158 13.7995C53.2218 14.0408 53.4752 14.342 53.6607 14.6846C53.9403 15.2989 54.2615 15.8935 54.6221 16.464L56.7803 15.7737L53.8335 20.5474L48.275 20.4883L49.9907 19.4756C49.9907 19.4756 48.1283 13.7855 45.7527 13.4228Z" fill="#1C1C30"/>
</svg>
