<svg width="97" height="27" viewBox="0 0 97 27" fill="none" xmlns="http://www.w3.org/2000/svg">
<path d="M8.32695 19.1165C8.24527 19.169 8.16013 19.2392 8.07384 19.3128L8.04968 19.3327C8.03243 19.3455 8.01517 19.3595 7.99791 19.3724C7.98065 19.3864 7.96225 19.3993 7.94384 19.4121C7.92543 19.4261 7.90702 19.439 7.88746 19.4519C7.86906 19.4647 7.8495 19.4776 7.82994 19.4893C7.81038 19.5021 7.78967 19.515 7.76896 19.5266C7.74941 19.5395 7.7287 19.5512 7.70684 19.5629C7.68613 19.5746 7.66542 19.5862 7.64356 19.5979C7.6217 19.6096 7.59984 19.6201 7.57798 19.6318C7.55497 19.6423 7.53311 19.6529 7.5101 19.6634C7.48709 19.6739 7.46408 19.6844 7.44107 19.6949C7.41807 19.7043 7.3939 19.7148 7.37089 19.7241C7.34789 19.7335 7.32487 19.7417 7.30071 19.751C7.27771 19.7592 7.2547 19.7674 7.23169 19.7756C7.20868 19.7826 7.18567 19.7908 7.16266 19.7978C7.13965 19.8048 7.11664 19.8118 7.09363 19.8176C7.07062 19.8246 7.04876 19.8305 7.02575 19.8363C7.00274 19.8422 6.98088 19.848 6.95787 19.8527C6.93601 19.8574 6.91415 19.862 6.89229 19.8667C6.86928 19.8702 6.84742 19.8749 6.82556 19.8784C6.56095 19.9252 6.28483 19.9485 6.00066 19.9509H5.79012C4.41529 19.917 3.2694 19.4589 2.35016 18.5754C1.43207 17.6919 0.95577 16.5852 0.920105 15.2541V10.0199C0.95577 8.68879 1.43207 7.58209 2.35016 6.69861C3.2694 5.8163 4.41529 5.35703 5.79012 5.3243H6.06049C6.3205 5.32898 6.56325 5.34651 6.78875 5.37806L6.85433 5.38858C6.87734 5.39325 6.89919 5.39676 6.9222 5.40143C6.94521 5.40611 6.96822 5.41078 6.99123 5.41663C7.01424 5.4213 7.03725 5.42714 7.06141 5.43299C7.08442 5.43883 7.10743 5.44467 7.13159 5.45168C7.1546 5.4587 7.17876 5.46571 7.20177 5.47272C7.22593 5.47973 7.24894 5.48791 7.2731 5.49609C7.29726 5.50427 7.32027 5.51245 7.34443 5.52063C7.36859 5.52998 7.3916 5.53933 7.41461 5.54868C7.43877 5.55803 7.46178 5.56738 7.48364 5.57673C7.50665 5.58607 7.52966 5.59659 7.55152 5.60711C7.57338 5.61763 7.59524 5.62815 7.6171 5.63867C7.63896 5.64918 7.65967 5.6597 7.68153 5.67139C7.70224 5.6819 7.72294 5.69359 7.74365 5.70528C7.76321 5.71579 7.78392 5.72748 7.80348 5.73917L7.82189 5.75085L7.8472 5.76721L7.87251 5.78474L7.89897 5.80111L7.92313 5.81863L7.94729 5.83616L7.97145 5.85369L7.99561 5.87005L8.01862 5.88875L8.04163 5.90628L8.06349 5.92381L8.08535 5.94134L8.10721 5.96004L8.12792 5.97757L8.14862 5.99627L8.16818 6.01496L8.18774 6.03249L8.2073 6.05119C8.2073 6.05119 8.22456 6.06872 8.24642 6.08391C8.26022 6.09209 8.27058 6.09794 8.28093 6.10261C8.29704 6.10962 8.31199 6.1143 8.32925 6.1178C8.34536 6.12131 8.36262 6.12248 8.38102 6.12248C8.39828 6.12248 8.41554 6.12131 8.43165 6.1178C8.4489 6.1143 8.46386 6.10845 8.47997 6.10261C8.49492 6.0956 8.50873 6.08742 8.52253 6.07807C8.53634 6.06872 8.549 6.0582 8.5605 6.04652C8.57201 6.03483 8.58236 6.02197 8.59156 6.00912C8.60077 5.9951 8.60882 5.9799 8.61457 5.96471C8.62148 5.94952 8.62608 5.93316 8.62953 5.9168C8.63298 5.89927 8.63643 5.88174 8.63643 5.86421C8.63413 5.69242 8.63068 5.45753 8.82166 5.40026C8.93556 5.36637 9.07477 5.38274 9.18867 5.38274H10.323H10.9282C11.1054 5.38274 11.3723 5.33833 11.4459 5.5592C11.5011 5.72281 11.4643 6.06521 11.4643 6.24051V8.68294V14.3987L11.4632 17.4009C11.4632 18.3919 11.5023 19.3934 11.393 20.3809C11.0858 23.133 9.7317 25.4715 6.86583 25.9845C5.13089 26.2942 3.40171 25.6666 2.06254 24.5436C1.89917 24.4068 1.55863 24.1766 1.57243 23.9406C1.57818 23.8576 1.6173 23.7805 1.67137 23.7185C1.67137 23.7185 2.78275 22.5253 2.86328 22.4213C2.94266 22.3325 3.05311 22.2051 3.17621 22.2051C3.35109 22.2063 3.53402 22.3723 3.85155 22.5616C4.39228 22.8841 4.97213 23.1798 5.58879 23.2733C5.9788 23.3329 6.40333 23.2779 6.77724 23.1552C8.23031 22.6773 8.63298 20.8133 8.71697 19.3525V19.328C8.71697 19.3186 8.71697 19.3105 8.71582 19.3023C8.71467 19.2929 8.71352 19.2847 8.71236 19.2766C8.71006 19.2684 8.70776 19.2602 8.70546 19.252C8.70316 19.2438 8.70086 19.2357 8.69741 19.2286C8.69396 19.2205 8.69051 19.2135 8.68705 19.2064C8.6836 19.1994 8.679 19.1924 8.6744 19.1854C8.6698 19.1784 8.66519 19.1714 8.65944 19.1655C8.65484 19.1597 8.64909 19.1539 8.64334 19.148C8.63758 19.1422 8.63183 19.1363 8.62608 19.1317C8.62033 19.1258 8.61342 19.1211 8.60652 19.1165C8.59962 19.1118 8.59271 19.1071 8.58581 19.1036C8.57891 19.1001 8.572 19.0966 8.56395 19.0931C8.55705 19.0896 8.549 19.0872 8.54094 19.0849C8.53289 19.0814 8.52484 19.0802 8.51678 19.0779C8.50873 19.0767 8.50067 19.0756 8.49147 19.0744C8.48342 19.0732 8.47536 19.0732 8.46616 19.0732C8.45811 19.0732 8.4489 19.0732 8.44085 19.0744C8.4328 19.0756 8.42359 19.0767 8.41554 19.0779C8.40749 19.0802 8.39943 19.0814 8.39138 19.0849C8.38333 19.0872 8.37642 19.0896 8.36837 19.0931C8.36147 19.0966 8.33385 19.1118 8.32695 19.1165ZM8.63183 15.2927V10.0386C8.60997 9.33971 8.36147 8.90381 7.88401 8.51232C7.40771 8.122 6.96017 7.92216 6.28253 7.91632H6.02022C5.31612 7.93268 4.85593 8.16758 4.38193 8.61867C3.90677 9.06976 3.66057 9.52669 3.64216 10.208V15.0672C3.66057 15.7473 3.90677 16.2042 4.38193 16.6553C4.85593 17.1064 5.31612 17.3413 6.02022 17.3577H6.28253C6.96017 17.3483 7.40771 17.1485 7.88401 16.7582C8.36147 16.3678 8.60997 15.9518 8.63183 15.2927Z" fill="white"/>
<path d="M31.0894 19.6135V17.6922C31.0882 17.5801 31.0595 17.4994 31.002 17.448C30.9456 17.3966 30.8697 17.3709 30.7742 17.372H25.5648C25.4393 17.3709 25.3508 17.3487 25.2967 17.3031C25.2484 17.2599 25.2139 17.2061 25.2139 17.1231C25.2104 17.0472 25.2426 16.9537 25.2806 16.8906L30.9882 5.94869C31.0043 5.91597 31.0192 5.87858 31.0319 5.8365C31.0445 5.7956 31.0503 5.75821 31.0514 5.72432C31.0457 5.55954 30.9306 5.47423 30.704 5.46839H21.354C21.1388 5.46371 21.033 5.57006 21.0387 5.78859V7.71099C21.033 7.92952 21.1388 8.03586 21.354 8.03119H26.2378C26.3482 8.03119 26.438 8.05106 26.4978 8.09546C26.5576 8.14104 26.5841 8.20648 26.5852 8.28712C26.5841 8.32101 26.5772 8.35841 26.5657 8.39931C26.553 8.44138 26.5381 8.47878 26.522 8.5115L20.7546 19.4534C20.7385 19.4861 20.7235 19.5235 20.7108 19.5656C20.6982 19.6065 20.6924 19.6439 20.6913 19.6777C20.6959 19.8425 20.8121 19.9278 21.0387 19.9337H30.7742C30.8835 19.9348 30.964 19.9091 31.0146 19.8577C31.0652 19.8063 31.0894 19.7245 31.0894 19.6135Z" fill="white"/>
<path d="M14.9162 3.60908C14.9254 3.71425 14.9565 3.79606 15.0094 3.85098C15.0716 3.91409 15.167 3.94681 15.2959 3.95032H17.2644C17.3932 3.94681 17.4887 3.91409 17.5509 3.85098C17.6038 3.79723 17.6429 3.71659 17.6429 3.61258C17.6429 3.61258 17.6429 3.55649 17.6429 3.55415V1.33259C17.6394 1.20053 17.6095 1.10003 17.5474 1.03693C17.4853 0.97382 17.3898 0.941098 17.2609 0.936424H17.1045C16.9825 0.936424 16.8801 0.963302 16.7674 1.08484L15.1153 2.95815L15.0359 3.05281C14.9473 3.15682 14.9139 3.24447 14.9139 3.35665V3.55415C14.9139 3.57051 14.9162 3.60908 14.9162 3.60908Z" fill="white"/>
<path d="M17.6296 5.79878C17.6296 5.68543 17.602 5.59661 17.5514 5.54168C17.4962 5.48442 17.4087 5.4552 17.2902 5.45637H15.2412C15.1227 5.45754 15.0364 5.49143 14.9812 5.55571C14.9294 5.61648 14.9007 5.69711 14.9007 5.79878V5.85604L14.8995 13.6753L14.9018 19.5909C14.9018 19.7043 14.9294 19.7931 14.9812 19.848C15.0353 19.9053 15.1227 19.9333 15.2412 19.9333H17.2902C17.4087 19.9322 17.4962 19.8983 17.5502 19.834C17.602 19.7732 17.6296 19.6926 17.6296 19.5909V5.79878Z" fill="white"/>
<path d="M96.0802 16.6633C96.0802 16.599 96.0607 16.5511 96.0204 16.5184C95.9801 16.4868 95.9364 16.4705 95.8904 16.4705C95.8444 16.4705 95.8006 16.4868 95.7604 16.5184C95.7201 16.5511 95.7006 16.599 95.7006 16.6633V18.0025H94.5178V16.6633C94.5178 16.599 94.4971 16.5511 94.4569 16.5184C94.4178 16.4868 94.374 16.4705 94.328 16.4705C94.2808 16.4705 94.2383 16.4868 94.198 16.5184C94.1577 16.5511 94.1382 16.599 94.1382 16.6633V19.8431C94.1382 19.9074 94.1577 19.9553 94.198 19.9857C94.2383 20.0161 94.2808 20.0313 94.328 20.0313C94.374 20.0313 94.4178 20.0161 94.4569 19.9857C94.4971 19.9553 94.5178 19.9074 94.5178 19.8431V18.387H95.7006V19.8431C95.7006 19.9109 95.7201 19.9588 95.7604 19.988C95.8006 20.0161 95.8444 20.0313 95.8904 20.0313C95.9364 20.0313 95.9801 20.0161 96.0204 19.988C96.0607 19.9588 96.0802 19.9109 96.0802 19.8431V16.6633ZM92.822 19.2156C92.822 19.3336 92.7795 19.4353 92.6966 19.5194C92.6138 19.6036 92.5125 19.6456 92.3929 19.6456H92.348C92.2341 19.6456 92.1352 19.6106 92.0501 19.5393C91.9649 19.468 91.9235 19.371 91.9235 19.246V18.3052C91.9235 18.1872 91.9649 18.0925 92.0501 18.0224C92.1352 17.9511 92.2341 17.9161 92.348 17.9161H92.3929C92.5125 17.9161 92.6138 17.9581 92.6966 18.0423C92.7795 18.1264 92.822 18.2281 92.822 18.3461V19.2156ZM93.2017 18.3473C93.2017 18.2351 93.181 18.1299 93.1384 18.0306C93.097 17.9301 93.0406 17.8436 92.967 17.7688C92.8934 17.694 92.8071 17.6356 92.7093 17.5935C92.6115 17.5514 92.5056 17.5304 92.3929 17.5304H92.3572C92.2709 17.5304 92.1881 17.5444 92.1076 17.5736C92.0282 17.6029 91.9661 17.6438 91.9235 17.6975V16.6633C91.9235 16.599 91.9028 16.5511 91.8637 16.5184C91.8234 16.4868 91.7797 16.4705 91.7337 16.4705C91.6865 16.4705 91.6439 16.4868 91.6037 16.5184C91.5634 16.5511 91.5438 16.599 91.5438 16.6633V19.8536C91.5438 19.9144 91.5634 19.9588 91.6037 19.988C91.6439 20.0161 91.6865 20.0313 91.7337 20.0313C91.7762 20.0313 91.8165 20.0184 91.8533 19.995C91.889 19.9705 91.9108 19.9331 91.9177 19.8817C91.9546 19.9191 92.0086 19.9541 92.08 19.9845C92.1524 20.0149 92.241 20.0313 92.348 20.0313H92.3929C92.5022 20.0313 92.6069 20.0102 92.7047 19.967C92.8025 19.9249 92.8888 19.8677 92.9612 19.7952C93.0349 19.7228 93.0924 19.6374 93.1361 19.5393C93.1787 19.4411 93.2017 19.3348 93.2017 19.2191V18.3473ZM90.6211 18.3414C90.6211 18.2035 90.5981 18.082 90.5556 17.9792C90.5118 17.8763 90.4532 17.7922 90.3784 17.7256C90.3036 17.6601 90.2173 17.611 90.1218 17.5783C90.024 17.5468 89.9228 17.5304 89.8169 17.5304H89.7721C89.6444 17.5304 89.5293 17.5573 89.4246 17.6087C89.3199 17.6613 89.229 17.7314 89.1531 17.8191C89.076 17.7314 88.9851 17.6613 88.8805 17.6087C88.7758 17.5573 88.6596 17.5304 88.533 17.5304H88.4881C88.4018 17.5304 88.3202 17.5444 88.2442 17.5713C88.1671 17.5982 88.105 17.6356 88.059 17.6823C88.0486 17.6321 88.0256 17.5935 87.9888 17.569C87.952 17.5433 87.914 17.5304 87.8749 17.5304C87.8243 17.5304 87.7794 17.5479 87.7392 17.5807C87.7001 17.6145 87.6793 17.6625 87.6793 17.7232V19.8431C87.6793 19.9074 87.7001 19.9553 87.7392 19.9857C87.7794 20.0161 87.822 20.0313 87.8692 20.0313C87.9163 20.0313 87.9589 20.0161 87.9992 19.9857C88.0394 19.9553 88.059 19.9074 88.059 19.8431V18.3064C88.059 18.1883 88.1016 18.0937 88.189 18.0224C88.2753 17.9511 88.3754 17.9161 88.4881 17.9161H88.533C88.6538 17.9161 88.755 17.957 88.8379 18.0376C88.9207 18.1194 88.9633 18.2234 88.9633 18.352V19.8326C88.9633 19.9004 88.9828 19.9506 89.0231 19.9822C89.0622 20.0149 89.1059 20.0313 89.1531 20.0313C89.1991 20.0313 89.2429 20.0149 89.282 19.9822C89.3222 19.9506 89.3418 19.9004 89.3418 19.8326V18.352C89.3418 18.2269 89.3832 18.1229 89.4672 18.0399C89.55 17.957 89.6524 17.9161 89.7721 17.9161H89.8169C89.9435 17.9161 90.0447 17.9511 90.123 18.0224C90.2024 18.0937 90.2415 18.2 90.2415 18.3414V19.8431C90.2415 19.9074 90.261 19.9553 90.3013 19.9857C90.3404 20.0161 90.3841 20.0313 90.4313 20.0313C90.4773 20.0313 90.521 20.0161 90.5602 19.9857C90.6004 19.9553 90.6211 19.9074 90.6211 19.8431V18.3414ZM86.7647 18.2865C86.7647 18.2351 86.7463 18.1907 86.7083 18.1521C86.6692 18.1124 86.6255 18.0937 86.576 18.0937H85.8616C85.7983 18.0937 85.7511 18.1136 85.7189 18.1545C85.6878 18.1954 85.6717 18.2386 85.6717 18.2865C85.6717 18.3333 85.6878 18.3777 85.7189 18.4186C85.7511 18.4583 85.7983 18.4793 85.8616 18.4793H86.3862V19.0695C86.3862 19.1501 86.3712 19.2261 86.3413 19.295C86.3103 19.364 86.27 19.4248 86.2194 19.4762C86.1664 19.5288 86.1066 19.5697 86.0387 19.6C85.9709 19.6304 85.8961 19.6456 85.8167 19.6456H85.7661C85.6867 19.6456 85.6119 19.6304 85.5452 19.6C85.4762 19.5697 85.4163 19.5288 85.3646 19.4762C85.3128 19.4236 85.2725 19.3628 85.2426 19.2939C85.2127 19.2249 85.1977 19.149 85.1977 19.0683V17.4276C85.1977 17.3504 85.2127 17.2768 85.2426 17.2079C85.2725 17.1389 85.3128 17.0781 85.3646 17.0256C85.4163 16.973 85.4762 16.9321 85.5452 16.9017C85.6119 16.8713 85.6867 16.8561 85.7661 16.8561H85.8167C85.9801 16.8561 86.1089 16.9029 86.2044 16.9975C86.2988 17.0922 86.3597 17.2114 86.3862 17.3528C86.3954 17.41 86.4196 17.4521 86.4552 17.4778C86.492 17.5024 86.5323 17.5152 86.576 17.5152C86.622 17.5152 86.6658 17.4989 86.7049 17.4673C86.7451 17.4346 86.7647 17.389 86.7647 17.3271V17.2967C86.7486 17.1787 86.7129 17.0688 86.6577 16.9671C86.6025 16.8655 86.5323 16.779 86.4483 16.7065C86.3632 16.6341 86.2665 16.5756 86.1584 16.5336C86.0502 16.4915 85.9363 16.4705 85.8167 16.4705H85.7661C85.6372 16.4705 85.513 16.4962 85.3968 16.5464C85.2806 16.5978 85.1805 16.6656 85.0953 16.7521C85.0102 16.8386 84.9423 16.9391 84.8929 17.0559C84.8434 17.1728 84.8181 17.299 84.8181 17.4346V19.073C84.8181 19.2074 84.8434 19.3336 84.8929 19.4505C84.9423 19.5673 85.0102 19.6678 85.0953 19.7543C85.1805 19.8408 85.2806 19.9086 85.3968 19.9576C85.513 20.0067 85.6372 20.0313 85.7661 20.0313H85.8167C85.9467 20.0313 86.0698 20.0067 86.186 19.9576C86.3022 19.9086 86.4034 19.8408 86.4886 19.7543C86.5726 19.6678 86.6404 19.5673 86.6899 19.4505C86.7405 19.3336 86.7647 19.2074 86.7647 19.073V18.2865ZM82.8139 17.6905C82.7748 17.4755 82.7219 17.2745 82.6563 17.0863C82.5896 16.8993 82.5102 16.7287 82.4182 16.5745C82.3273 16.4202 82.2283 16.2917 82.1213 16.1865C82.0822 16.1456 82.0385 16.1257 81.9913 16.1257C81.9522 16.1257 81.9085 16.1444 81.8625 16.1818C81.8222 16.2215 81.8015 16.266 81.8015 16.3127C81.8015 16.3571 81.821 16.398 81.8567 16.4354C81.943 16.5195 82.0258 16.6282 82.1041 16.7591C82.1823 16.8912 82.2513 17.0408 82.3112 17.2055C82.371 17.3715 82.4182 17.5514 82.4538 17.7454C82.4895 17.9406 82.5056 18.1428 82.5056 18.352C82.5056 18.5682 82.4872 18.775 82.4515 18.9713C82.4147 19.1665 82.3652 19.3476 82.3043 19.5136C82.2421 19.6795 82.1719 19.8268 82.0914 19.9576C82.012 20.0874 81.928 20.1949 81.8418 20.279C81.8061 20.3164 81.7865 20.3573 81.7865 20.4017C81.7865 20.4485 81.8072 20.4929 81.8475 20.5326C81.8901 20.5735 81.9349 20.5934 81.9821 20.5934C82.0258 20.5934 82.0661 20.5735 82.1064 20.5326C82.2134 20.4286 82.3123 20.3001 82.4067 20.1481C82.4998 19.995 82.5804 19.8256 82.6483 19.6374C82.7161 19.4505 82.7702 19.2471 82.8105 19.0298C82.8507 18.8112 82.8703 18.5857 82.8703 18.352C82.8703 18.1252 82.8507 17.9055 82.8139 17.6905ZM81.0939 19.6807C81.0617 19.641 81.0146 19.6199 80.9513 19.6199H79.6926L81.1112 16.8561C81.1342 16.8117 81.1457 16.7685 81.1457 16.7241C81.1457 16.6633 81.1239 16.6107 81.0813 16.5663C81.0376 16.523 80.9835 16.5008 80.9156 16.5008H79.4879C79.4223 16.5008 79.3728 16.5207 79.3429 16.5616C79.313 16.6025 79.298 16.6458 79.298 16.6937C79.298 16.7416 79.313 16.7848 79.3429 16.8257C79.3728 16.8655 79.4223 16.8865 79.4879 16.8865H80.6717L79.2589 19.641C79.2382 19.6772 79.229 19.7181 79.229 19.7625C79.229 19.8268 79.2474 19.8829 79.2865 19.9319C79.3245 19.981 79.3786 20.0056 79.4476 20.0056H80.9513C81.0146 20.0056 81.0617 19.9857 81.0939 19.9448C81.125 19.9039 81.1411 19.8607 81.1411 19.8127C81.1411 19.766 81.125 19.7216 81.0939 19.6807ZM78.3201 16.6633C78.3201 16.599 78.2994 16.5511 78.2603 16.5184C78.22 16.4868 78.1774 16.4705 78.1303 16.4705C78.0831 16.4705 78.0405 16.4868 78.0003 16.5184C77.96 16.5511 77.9404 16.599 77.9404 16.6633V19.8431C77.9404 19.9074 77.96 19.9553 78.0003 19.9857C78.0405 20.0161 78.0831 20.0313 78.1303 20.0313C78.1774 20.0313 78.22 20.0161 78.2603 19.9857C78.2994 19.9553 78.3201 19.9074 78.3201 19.8431V16.6633ZM76.9372 18.2865C76.9372 18.2351 76.9177 18.1907 76.8797 18.1521C76.8417 18.1124 76.798 18.0937 76.7474 18.0937H76.0341C75.9697 18.0937 75.9225 18.1136 75.8914 18.1545C75.8592 18.1954 75.8443 18.2386 75.8443 18.2865C75.8443 18.3333 75.8592 18.3777 75.8914 18.4186C75.9225 18.4583 75.9697 18.4793 76.0341 18.4793H76.5576V19.0695C76.5576 19.1501 76.5426 19.2261 76.5127 19.295C76.4828 19.364 76.4425 19.4248 76.3907 19.4762C76.339 19.5288 76.2791 19.5697 76.2113 19.6C76.1422 19.6304 76.0686 19.6456 75.9881 19.6456H75.9386C75.8592 19.6456 75.7844 19.6304 75.7166 19.6C75.6487 19.5697 75.5889 19.5288 75.5371 19.4762C75.4853 19.4236 75.4439 19.3628 75.414 19.2939C75.3841 19.2249 75.3691 19.149 75.3691 19.0683V17.4276C75.3691 17.3504 75.3841 17.2768 75.414 17.2079C75.4439 17.1389 75.4853 17.0781 75.5371 17.0256C75.5889 16.973 75.6487 16.9321 75.7166 16.9017C75.7844 16.8713 75.8592 16.8561 75.9386 16.8561H75.9881C76.1514 16.8561 76.2814 16.9029 76.3758 16.9975C76.4713 17.0922 76.5311 17.2114 76.5576 17.3528C76.5679 17.41 76.5909 17.4521 76.6277 17.4778C76.6646 17.5024 76.7048 17.5152 76.7474 17.5152C76.7946 17.5152 76.8371 17.4989 76.8774 17.4673C76.9177 17.4346 76.9372 17.389 76.9372 17.3271V17.2967C76.9211 17.1787 76.8855 17.0688 76.8302 16.9671C76.775 16.8655 76.706 16.779 76.6208 16.7065C76.5357 16.6341 76.4391 16.5756 76.3309 16.5336C76.2228 16.4915 76.1089 16.4705 75.9881 16.4705H75.9386C75.8086 16.4705 75.6855 16.4962 75.5693 16.5464C75.4531 16.5978 75.3518 16.6656 75.2679 16.7521C75.1827 16.8386 75.1148 16.9391 75.0654 17.0559C75.0148 17.1728 74.9894 17.299 74.9894 17.4346V19.073C74.9894 19.2074 75.0148 19.3336 75.0654 19.4505C75.1148 19.5673 75.1827 19.6678 75.2679 19.7543C75.3518 19.8408 75.4531 19.9086 75.5693 19.9576C75.6855 20.0067 75.8086 20.0313 75.9386 20.0313H75.9881C76.1181 20.0313 76.2423 20.0067 76.3585 19.9576C76.4747 19.9086 76.576 19.8408 76.66 19.7543C76.7451 19.6678 76.813 19.5673 76.8624 19.4505C76.9119 19.3336 76.9372 19.2074 76.9372 19.073V18.2865ZM74.0967 19.9576C74.0161 19.8268 73.9448 19.6795 73.8838 19.5136C73.8228 19.3476 73.7734 19.1665 73.7366 18.9713C73.6997 18.775 73.6813 18.5682 73.6813 18.352C73.6813 18.1428 73.6997 17.9406 73.7366 17.7454C73.7734 17.5514 73.8217 17.3715 73.8815 17.2055C73.9413 17.0408 74.0104 16.8912 74.0886 16.7591C74.1668 16.6282 74.2474 16.5195 74.3302 16.4354C74.367 16.398 74.3854 16.3571 74.3854 16.3127C74.3854 16.266 74.3647 16.2215 74.3256 16.1818C74.2784 16.1444 74.2359 16.1257 74.1956 16.1257C74.1484 16.1257 74.1059 16.1456 74.0668 16.1865C73.9632 16.2952 73.8654 16.4261 73.7734 16.5791C73.6825 16.7334 73.6031 16.9029 73.5375 17.0887C73.4697 17.2756 73.4167 17.4743 73.3765 17.6882C73.3362 17.9009 73.3178 18.1217 73.3178 18.352C73.3178 18.5857 73.3362 18.8112 73.3765 19.0298C73.4167 19.2471 73.4708 19.4505 73.5387 19.6374C73.6077 19.8256 73.6882 19.995 73.7814 20.1481C73.8746 20.3001 73.9747 20.4286 74.0806 20.5326C74.1208 20.5735 74.1622 20.5934 74.2048 20.5934C74.2566 20.5934 74.3003 20.5735 74.3406 20.5326C74.3831 20.4987 74.405 20.4567 74.405 20.4064C74.405 20.362 74.3854 20.3199 74.3463 20.279C74.2589 20.1949 74.1749 20.0874 74.0967 19.9576ZM71.2768 19.7122C71.2492 19.6748 71.2043 19.6526 71.1445 19.6456C71.0686 19.6386 71.0007 19.6106 70.9432 19.5615C70.8845 19.5136 70.8557 19.4446 70.8557 19.357V17.9312H71.125C71.1882 17.9312 71.2354 17.9114 71.2676 17.8705C71.2987 17.8296 71.3148 17.7863 71.3148 17.7384C71.3148 17.6905 71.2987 17.6473 71.2676 17.6064C71.2354 17.5655 71.1882 17.5456 71.125 17.5456H70.8557V16.6633C70.8557 16.599 70.835 16.5511 70.7959 16.5184C70.7556 16.4868 70.7119 16.4705 70.6659 16.4705C70.6187 16.4705 70.5762 16.4868 70.5359 16.5184C70.4956 16.5511 70.4761 16.599 70.4761 16.6633V17.5456H70.3012C70.2379 17.5456 70.1908 17.5655 70.1585 17.6064C70.1275 17.6473 70.1114 17.6905 70.1114 17.7384C70.1114 17.7863 70.1275 17.8296 70.1585 17.8705C70.1908 17.9114 70.2379 17.9312 70.3012 17.9312H70.4761V19.3663C70.4761 19.4575 70.4922 19.544 70.5255 19.6246C70.5589 19.7064 70.6061 19.7777 70.6659 19.8384C70.7257 19.8992 70.7959 19.946 70.8753 19.9799C70.9547 20.0137 71.0398 20.0313 71.1296 20.0313C71.1963 20.0313 71.2446 20.0114 71.2745 19.9717C71.3044 19.9319 71.3194 19.8887 71.3194 19.8408C71.3194 19.7929 71.3056 19.7496 71.2768 19.7122ZM69.3026 17.7232C69.3026 17.659 69.283 17.611 69.2428 17.5783C69.2025 17.5468 69.1599 17.5304 69.1127 17.5304C69.0667 17.5304 69.023 17.5468 68.9827 17.5783C68.9436 17.611 68.9229 17.659 68.9229 17.7232V19.8431C68.9229 19.9074 68.9436 19.9553 68.9827 19.9857C69.023 20.0161 69.0667 20.0313 69.1127 20.0313C69.1599 20.0313 69.2025 20.0161 69.2428 19.9857C69.283 19.9553 69.3026 19.9074 69.3026 19.8431V17.7232ZM69.3026 16.6633C69.3026 16.599 69.283 16.5511 69.2428 16.5184C69.2025 16.4868 69.1599 16.4705 69.1127 16.4705C69.0667 16.4705 69.023 16.4868 68.9827 16.5184C68.9436 16.5511 68.9229 16.599 68.9229 16.6633V16.7743C68.9229 16.8386 68.9436 16.8877 68.9827 16.9192C69.023 16.9519 69.0667 16.9671 69.1127 16.9671C69.1599 16.9671 69.2025 16.9519 69.2428 16.9192C69.283 16.8877 69.3026 16.8386 69.3026 16.7743V16.6633ZM67.6942 18.6055H66.7945V18.3508C66.7945 18.2281 66.8371 18.1241 66.9222 18.0411C67.0074 17.9581 67.1074 17.9161 67.2248 17.9161H67.2743C67.3847 17.9161 67.4814 17.9581 67.5665 18.0411C67.6516 18.1241 67.6942 18.2292 67.6942 18.3555V18.6055ZM68.0727 18.352C68.0727 18.2339 68.052 18.1252 68.0106 18.0247C67.9692 17.9254 67.9116 17.8378 67.8392 17.7641C67.7655 17.6893 67.6792 17.6321 67.5814 17.5912C67.4837 17.5514 67.379 17.5304 67.2697 17.5304H67.219C67.1097 17.5304 67.0062 17.5514 66.9073 17.5935C66.8095 17.6356 66.7232 17.694 66.6507 17.7688C66.5771 17.8436 66.5195 17.9301 66.4781 18.0306C66.4367 18.1299 66.416 18.2351 66.416 18.3473V19.2191C66.416 19.3348 66.4367 19.4411 66.4781 19.5393C66.5195 19.6374 66.5771 19.7228 66.6507 19.7952C66.7232 19.8677 66.8095 19.9249 66.9073 19.967C67.0062 20.0102 67.1097 20.0313 67.219 20.0313H67.2697C67.4388 20.0313 67.5883 19.9869 67.7161 19.8969C67.8449 19.8081 67.9381 19.6924 67.9979 19.5486C68.0117 19.5253 68.0186 19.4972 68.0186 19.4633C68.0186 19.4049 67.9979 19.3581 67.9588 19.3207C67.9185 19.2834 67.8737 19.2647 67.8242 19.2647C67.7908 19.2647 67.7586 19.274 67.7287 19.2927C67.6988 19.3114 67.6758 19.343 67.6585 19.3874C67.6252 19.4575 67.5768 19.5182 67.5113 19.5697C67.4468 19.6199 67.3663 19.6456 67.2697 19.6456H67.219C67.1028 19.6456 67.0027 19.6036 66.9199 19.5194C66.8371 19.4353 66.7945 19.3348 66.7945 19.2179V18.9608H67.884C67.9369 18.9608 67.9818 18.9409 68.0186 18.9024C68.0554 18.8638 68.0727 18.8182 68.0727 18.768V18.352ZM65.216 19.2156C65.216 19.3336 65.1746 19.4353 65.0918 19.5194C65.0078 19.6036 64.9066 19.6456 64.7869 19.6456H64.742C64.6281 19.6456 64.5292 19.6106 64.4452 19.5393C64.3601 19.468 64.3175 19.371 64.3175 19.246V18.3052C64.3175 18.1872 64.3601 18.0925 64.4452 18.0224C64.5292 17.9511 64.6281 17.9161 64.742 17.9161H64.7869C64.9066 17.9161 65.0078 17.9581 65.0918 18.0423C65.1746 18.1264 65.216 18.2281 65.216 18.3461V19.2156ZM65.5957 18.3473C65.5957 18.2351 65.575 18.1299 65.5336 18.0306C65.4922 17.9301 65.4346 17.8436 65.361 17.7688C65.2874 17.694 65.2022 17.6356 65.1044 17.5935C65.0055 17.5514 64.8997 17.5304 64.7869 17.5304H64.7524C64.665 17.5304 64.5821 17.5444 64.5027 17.5736C64.4222 17.6029 64.3612 17.6438 64.3175 17.6975V16.6633C64.3175 16.599 64.2979 16.5511 64.2577 16.5184C64.2174 16.4868 64.1748 16.4705 64.1277 16.4705C64.0817 16.4705 64.0379 16.4868 63.9977 16.5184C63.9586 16.5511 63.9378 16.599 63.9378 16.6633V19.8536C63.9378 19.9144 63.9586 19.9588 63.9977 19.988C64.0379 20.0161 64.0817 20.0313 64.1277 20.0313C64.1714 20.0313 64.2105 20.0184 64.2473 19.995C64.2841 19.9705 64.306 19.9331 64.3129 19.8817C64.3486 19.9191 64.4026 19.9541 64.4751 19.9845C64.5465 20.0149 64.635 20.0313 64.742 20.0313H64.7869C64.8962 20.0313 65.0009 20.0102 65.0987 19.967C65.1976 19.9249 65.2828 19.8677 65.3564 19.7952C65.4289 19.7228 65.4876 19.6374 65.5313 19.5393C65.5738 19.4411 65.5957 19.3348 65.5957 19.2191V18.3473ZM63.1244 17.7793C63.0646 17.6905 62.9875 17.6274 62.892 17.5888C62.7977 17.5503 62.7022 17.5304 62.6056 17.5304C62.5388 17.5304 62.4836 17.5351 62.4411 17.5456C62.3973 17.5561 62.3605 17.5678 62.3306 17.5807C62.2938 17.5947 62.2662 17.6122 62.2455 17.6321C62.2294 17.5947 62.2064 17.569 62.1764 17.5538C62.1465 17.5386 62.1143 17.5304 62.081 17.5304C62.0349 17.5304 61.9901 17.5479 61.9486 17.5807C61.9072 17.6145 61.8865 17.6625 61.8865 17.7232V19.8326C61.8865 19.9004 61.9061 19.9506 61.9463 19.9822C61.9866 20.0149 62.0292 20.0313 62.0764 20.0313C62.1224 20.0313 62.1661 20.0149 62.2064 19.9822C62.2455 19.9506 62.2662 19.9004 62.2662 19.8326V18.2561C62.2662 18.2152 62.2696 18.1743 62.2754 18.1334C62.2823 18.0937 62.2972 18.0575 62.3203 18.0247C62.3444 17.9932 62.3778 17.9663 62.4203 17.9464C62.4641 17.9266 62.5239 17.9161 62.601 17.9161C62.6631 17.9161 62.7126 17.9289 62.7482 17.9535C62.7828 17.9792 62.8104 18.0025 62.8299 18.0224C62.8771 18.0703 62.9277 18.0937 62.9852 18.0937C63.0347 18.0937 63.0784 18.0762 63.1152 18.0423C63.1509 18.0095 63.1693 17.9651 63.1693 17.9114C63.1693 17.8705 63.1544 17.8261 63.1244 17.7793ZM60.4622 19.2144C60.4622 19.3359 60.4196 19.4388 60.3345 19.5206C60.2505 19.6036 60.1493 19.6456 60.0331 19.6456H59.9882C59.8617 19.6456 59.7593 19.6129 59.681 19.5486C59.6028 19.4844 59.5637 19.399 59.5637 19.2904V19.2495C59.5637 19.1618 59.5924 19.094 59.6511 19.0473C59.7098 18.9994 59.7834 18.962 59.8732 18.9351C59.9629 18.9082 60.0607 18.8872 60.1654 18.872C60.2701 18.8568 60.369 18.8369 60.4622 18.8136V19.2144ZM61.0938 19.7239C61.0697 19.6889 61.0283 19.6655 60.9719 19.655C60.8856 19.6386 60.8419 19.5825 60.8419 19.4879V18.3122C60.8419 18.2035 60.8223 18.1019 60.7821 18.0072C60.7418 17.9125 60.6877 17.8296 60.6175 17.7583C60.5474 17.6882 60.4645 17.6321 60.3679 17.5912C60.2712 17.5514 60.1677 17.5304 60.0584 17.5304H60.0227C59.956 17.5304 59.8881 17.5386 59.8179 17.5538C59.7489 17.569 59.6799 17.5935 59.6132 17.6297C59.5464 17.6648 59.4843 17.7127 59.4268 17.7735C59.3681 17.8343 59.3186 17.9114 59.2795 18.0025C59.2657 18.0259 59.2588 18.0563 59.2588 18.0937C59.2588 18.1474 59.2795 18.1907 59.3186 18.2222C59.3589 18.255 59.4026 18.2713 59.4486 18.2713C59.482 18.2713 59.5131 18.2631 59.5441 18.2479C59.574 18.2328 59.5982 18.207 59.6189 18.1696C59.6649 18.0855 59.719 18.0212 59.7788 17.9792C59.8387 17.9371 59.9203 17.9161 60.0227 17.9161H60.0584C60.1677 17.9161 60.262 17.9464 60.3426 18.0072C60.4219 18.068 60.4622 18.1743 60.4622 18.3262C60.4622 18.3403 60.4611 18.3555 60.4599 18.373C60.4588 18.3893 60.4542 18.4034 60.4473 18.4127C60.4277 18.4396 60.3817 18.4606 60.3104 18.4758C60.239 18.491 60.1562 18.5074 60.063 18.5249C59.9698 18.5413 59.872 18.5635 59.7685 18.5904C59.6649 18.6172 59.5706 18.657 59.4832 18.7096C59.3969 18.7621 59.3255 18.8311 59.2692 18.9176C59.2128 19.004 59.184 19.1127 59.184 19.2448V19.3056C59.184 19.4236 59.207 19.5288 59.2542 19.6199C59.3002 19.7111 59.3612 19.787 59.436 19.8478C59.5108 19.9086 59.597 19.9553 59.6937 19.9857C59.7903 20.0161 59.8881 20.0313 59.9882 20.0313H60.0331C60.2425 20.0313 60.4219 19.9647 60.5727 19.8326C60.606 19.8805 60.6486 19.9214 60.7027 19.9553C60.7556 19.9892 60.8258 20.0126 60.9121 20.0254C60.9155 20.0289 60.927 20.0313 60.9466 20.0313C61.0064 20.0313 61.0524 20.0114 61.0835 19.9728C61.1157 19.9343 61.1318 19.8887 61.1318 19.8384C61.1318 19.7975 61.1191 19.7602 61.0938 19.7239ZM58.404 18.3473C58.404 18.2082 58.3833 18.0878 58.3396 17.985C58.2958 17.881 58.2383 17.7957 58.1647 17.7279C58.0911 17.6601 58.0059 17.611 57.9104 17.5783C57.8138 17.5468 57.7114 17.5304 57.6056 17.5304H57.5607C57.4744 17.5304 57.3927 17.5444 57.3156 17.5713C57.2397 17.5982 57.1776 17.6356 57.1315 17.6823C57.1212 17.6321 57.0982 17.5935 57.0614 17.569C57.0246 17.5433 56.9843 17.5304 56.9417 17.5304C56.8911 17.5304 56.8462 17.5479 56.806 17.5807C56.7668 17.6145 56.7461 17.6625 56.7461 17.7232V19.8431C56.7461 19.9074 56.7668 19.9553 56.806 19.9857C56.8462 20.0161 56.8899 20.0313 56.936 20.0313C56.9831 20.0313 57.0257 20.0161 57.066 19.9857C57.1062 19.9553 57.1258 19.9074 57.1258 19.8431V18.3473C57.1258 18.2257 57.1684 18.1229 57.2524 18.0399C57.3375 17.957 57.4376 17.9161 57.5538 17.9161H57.5975C57.7171 17.9161 57.8184 17.9581 57.9012 18.0423C57.9829 18.1276 58.0243 18.2292 58.0243 18.3473V19.8431C58.0243 19.9074 58.045 19.9553 58.0853 19.9857C58.1256 20.0161 58.1704 20.0313 58.2176 20.0313C58.2648 20.0313 58.3074 20.0161 58.3465 19.9857C58.3844 19.9553 58.404 19.9074 58.404 19.8431V18.3473ZM55.545 18.6055H54.6465V18.3508C54.6465 18.2281 54.6891 18.1241 54.773 18.0411C54.8582 17.9581 54.9594 17.9161 55.0756 17.9161H55.1251C55.2355 17.9161 55.3322 17.9581 55.4173 18.0411C55.5025 18.1241 55.545 18.2292 55.545 18.3555V18.6055ZM55.9247 18.352C55.9247 18.2339 55.9028 18.1252 55.8614 18.0247C55.82 17.9254 55.7625 17.8378 55.69 17.7641C55.6164 17.6893 55.5312 17.6321 55.4323 17.5912C55.3345 17.5514 55.2298 17.5304 55.1205 17.5304H55.0699C54.9606 17.5304 54.857 17.5514 54.7581 17.5935C54.6603 17.6356 54.574 17.694 54.5015 17.7688C54.4279 17.8436 54.3704 17.9301 54.329 18.0306C54.2875 18.1299 54.2668 18.2351 54.2668 18.3473V19.2191C54.2668 19.3348 54.2875 19.4411 54.329 19.5393C54.3704 19.6374 54.4279 19.7228 54.5015 19.7952C54.574 19.8677 54.6603 19.9249 54.7581 19.967C54.857 20.0102 54.9606 20.0313 55.0699 20.0313H55.1205C55.2896 20.0313 55.4392 19.9869 55.5669 19.8969C55.6957 19.8081 55.7889 19.6924 55.8488 19.5486C55.8626 19.5253 55.8695 19.4972 55.8695 19.4633C55.8695 19.4049 55.8488 19.3581 55.8096 19.3207C55.7694 19.2834 55.7245 19.2647 55.675 19.2647C55.6417 19.2647 55.6095 19.274 55.5795 19.2927C55.5496 19.3114 55.5266 19.343 55.5094 19.3874C55.4771 19.4575 55.4277 19.5182 55.3621 19.5697C55.2977 19.6199 55.2171 19.6456 55.1205 19.6456H55.0699C54.9537 19.6456 54.8536 19.6036 54.7707 19.5194C54.6879 19.4353 54.6465 19.3348 54.6465 19.2179V18.9608H55.7349C55.7878 18.9608 55.8326 18.9409 55.8695 18.9024C55.9063 18.8638 55.9247 18.8182 55.9247 18.768V18.352ZM53.4304 18.3414C53.4304 18.2035 53.4086 18.082 53.366 17.9792C53.3223 17.8763 53.2636 17.7922 53.1888 17.7256C53.114 17.6601 53.0278 17.611 52.9311 17.5783C52.8345 17.5468 52.7332 17.5304 52.6274 17.5304H52.5825C52.456 17.5304 52.3398 17.5573 52.2351 17.6087C52.1304 17.6613 52.0395 17.7314 51.9624 17.8191C51.8865 17.7314 51.7956 17.6613 51.6909 17.6087C51.5862 17.5573 51.47 17.5304 51.3434 17.5304H51.2986C51.2123 17.5304 51.1306 17.5444 51.0547 17.5713C50.9776 17.5982 50.9155 17.6356 50.8694 17.6823C50.8591 17.6321 50.8361 17.5935 50.7993 17.569C50.7624 17.5433 50.7245 17.5304 50.6842 17.5304C50.6347 17.5304 50.5899 17.5479 50.5496 17.5807C50.5093 17.6145 50.4898 17.6625 50.4898 17.7232V19.8431C50.4898 19.9074 50.5093 19.9553 50.5496 19.9857C50.5899 20.0161 50.6324 20.0313 50.6796 20.0313C50.7256 20.0313 50.7693 20.0161 50.8096 19.9857C50.8499 19.9553 50.8694 19.9074 50.8694 19.8431V18.3064C50.8694 18.1883 50.912 18.0937 50.9994 18.0224C51.0857 17.9511 51.1858 17.9161 51.2986 17.9161H51.3434C51.4631 17.9161 51.5655 17.957 51.6483 18.0376C51.7312 18.1194 51.7726 18.2234 51.7726 18.352V19.8326C51.7726 19.9004 51.7933 19.9506 51.8335 19.9822C51.8727 20.0149 51.9164 20.0313 51.9624 20.0313C52.0096 20.0313 52.0533 20.0149 52.0924 19.9822C52.1327 19.9506 52.1522 19.9004 52.1522 19.8326V18.352C52.1522 18.2269 52.1936 18.1229 52.2776 18.0399C52.3605 17.957 52.4617 17.9161 52.5825 17.9161H52.6274C52.7528 17.9161 52.8563 17.9511 52.9334 18.0224C53.0117 18.0937 53.0508 18.2 53.0508 18.3414V19.8431C53.0508 19.9074 53.0715 19.9553 53.1117 19.9857C53.1509 20.0161 53.1946 20.0313 53.2406 20.0313C53.2878 20.0313 53.3315 20.0161 53.3706 19.9857C53.4109 19.9553 53.4304 19.9074 53.4304 19.8431V18.3414ZM49.6074 18.3414C49.6074 18.2035 49.5855 18.082 49.5418 17.9792C49.4992 17.8763 49.4394 17.7922 49.3646 17.7256C49.2898 17.6601 49.2047 17.611 49.108 17.5783C49.0114 17.5468 48.9102 17.5304 48.8032 17.5304H48.7583C48.6317 17.5304 48.5167 17.5573 48.4108 17.6087C48.3062 17.6613 48.2153 17.7314 48.1393 17.8191C48.0622 17.7314 47.9725 17.6613 47.8667 17.6087C47.762 17.5573 47.6469 17.5304 47.5204 17.5304H47.4755C47.3881 17.5304 47.3064 17.5444 47.2304 17.5713C47.1534 17.5982 47.0924 17.6356 47.0452 17.6823C47.036 17.6321 47.0118 17.5935 46.9762 17.569C46.9394 17.5433 46.9014 17.5304 46.8611 17.5304C46.8105 17.5304 46.7656 17.5479 46.7265 17.5807C46.6863 17.6145 46.6667 17.6625 46.6667 17.7232V19.8431C46.6667 19.9074 46.6863 19.9553 46.7265 19.9857C46.7656 20.0161 46.8094 20.0313 46.8554 20.0313C46.9026 20.0313 46.9463 20.0161 46.9854 19.9857C47.0257 19.9553 47.0452 19.9074 47.0452 19.8431V18.3064C47.0452 18.1883 47.0889 18.0937 47.1752 18.0224C47.2615 17.9511 47.3616 17.9161 47.4755 17.9161H47.5204C47.64 17.9161 47.7413 17.957 47.8241 18.0376C47.9081 18.1194 47.9495 18.2234 47.9495 18.352V19.8326C47.9495 19.9004 47.9691 19.9506 48.0093 19.9822C48.0496 20.0149 48.0922 20.0313 48.1393 20.0313C48.1853 20.0313 48.2291 20.0149 48.2693 19.9822C48.3084 19.9506 48.3292 19.9004 48.3292 19.8326V18.352C48.3292 18.2269 48.3706 18.1229 48.4534 18.0399C48.5374 17.957 48.6386 17.9161 48.7583 17.9161H48.8032C48.9297 17.9161 49.0321 17.9511 49.1103 18.0224C49.1886 18.0937 49.2277 18.2 49.2277 18.3414V19.8431C49.2277 19.9074 49.2472 19.9553 49.2875 19.9857C49.3278 20.0161 49.3704 20.0313 49.4175 20.0313C49.4635 20.0313 49.5073 20.0161 49.5475 19.9857C49.5878 19.9553 49.6074 19.9074 49.6074 19.8431V18.3414ZM45.2286 19.2144C45.2286 19.3359 45.186 19.4388 45.1009 19.5206C45.0169 19.6036 44.9157 19.6456 44.7995 19.6456H44.7546C44.628 19.6456 44.5256 19.6129 44.4474 19.5486C44.3692 19.4844 44.3301 19.399 44.3301 19.2904V19.2495C44.3301 19.1618 44.3588 19.094 44.4175 19.0473C44.475 18.9994 44.5498 18.962 44.6395 18.9351C44.7293 18.9082 44.8271 18.8872 44.9318 18.872C45.0365 18.8568 45.1354 18.8369 45.2286 18.8136V19.2144ZM45.8602 19.7239C45.8349 19.6889 45.7946 19.6655 45.7383 19.655C45.6508 19.6386 45.6083 19.5825 45.6083 19.4879V18.3122C45.6083 18.2035 45.5887 18.1019 45.5484 18.0072C45.5082 17.9125 45.4529 17.8296 45.3839 17.7583C45.3137 17.6882 45.2309 17.6321 45.1342 17.5912C45.0376 17.5514 44.9341 17.5304 44.8248 17.5304H44.7891C44.7224 17.5304 44.6545 17.5386 44.5843 17.5538C44.5141 17.569 44.4463 17.5935 44.3795 17.6297C44.3128 17.6648 44.2507 17.7127 44.1932 17.7735C44.1345 17.8343 44.085 17.9114 44.0447 18.0025C44.0321 18.0259 44.0252 18.0563 44.0252 18.0937C44.0252 18.1474 44.0447 18.1907 44.085 18.2222C44.1253 18.255 44.169 18.2713 44.215 18.2713C44.2484 18.2713 44.2794 18.2631 44.3105 18.2479C44.3404 18.2328 44.3646 18.207 44.3853 18.1696C44.4313 18.0855 44.4842 18.0212 44.5452 17.9792C44.605 17.9371 44.6856 17.9161 44.7891 17.9161H44.8248C44.9341 17.9161 45.0284 17.9464 45.1089 18.0072C45.1883 18.068 45.2286 18.1743 45.2286 18.3262C45.2286 18.3403 45.2274 18.3555 45.2263 18.373C45.224 18.3893 45.2205 18.4034 45.2136 18.4127C45.1941 18.4396 45.1481 18.4606 45.0767 18.4758C45.0042 18.491 44.9226 18.5074 44.8294 18.5249C44.7362 18.5413 44.6372 18.5635 44.5348 18.5904C44.4313 18.6172 44.337 18.657 44.2495 18.7096C44.1632 18.7621 44.0919 18.8311 44.0355 18.9176C43.9792 19.004 43.9504 19.1127 43.9504 19.2448V19.3056C43.9504 19.4236 43.9734 19.5288 44.0206 19.6199C44.0666 19.7111 44.1276 19.787 44.2024 19.8478C44.2771 19.9086 44.3634 19.9553 44.4601 19.9857C44.5567 20.0161 44.6545 20.0313 44.7546 20.0313H44.7995C45.0088 20.0313 45.1883 19.9647 45.339 19.8326C45.3713 19.8805 45.415 19.9214 45.4679 19.9553C45.522 19.9892 45.591 20.0126 45.6784 20.0254C45.6819 20.0289 45.6934 20.0313 45.7129 20.0313C45.7728 20.0313 45.8188 20.0114 45.8499 19.9728C45.8821 19.9343 45.8982 19.8887 45.8982 19.8384C45.8982 19.7975 45.8855 19.7602 45.8602 19.7239ZM43.2256 19.302C43.2256 19.1373 43.1922 19.0076 43.1278 18.9129C43.0622 18.8182 42.9828 18.7446 42.8885 18.6932C42.793 18.6406 42.6895 18.602 42.5756 18.5763C42.4628 18.5506 42.3593 18.5261 42.2638 18.5004C42.1694 18.4747 42.0889 18.4408 42.0245 18.3987C41.9589 18.3566 41.9267 18.2924 41.9267 18.2047V18.1895C41.9301 18.1147 41.9681 18.0504 42.0417 17.9967C42.1154 17.9429 42.2212 17.9161 42.3616 17.9161H42.3811C42.4939 17.9161 42.5825 17.9324 42.6457 17.964C42.709 17.9967 42.7677 18.0259 42.8206 18.0528C42.8609 18.0727 42.8965 18.0832 42.9299 18.0832C42.984 18.0832 43.0266 18.0645 43.0599 18.0271C43.0933 17.9908 43.1105 17.9476 43.1105 17.9009C43.1105 17.8389 43.0864 17.7898 43.0404 17.7513C43.0208 17.7349 42.9909 17.7127 42.9529 17.687C42.915 17.6613 42.8678 17.6379 42.8126 17.6157C42.7585 17.5935 42.6952 17.5736 42.6239 17.5561C42.5514 17.5386 42.4732 17.5304 42.3857 17.5304H42.3662C42.2868 17.5304 42.1994 17.5421 42.1039 17.5631C42.0095 17.5853 41.9209 17.6216 41.8392 17.6718C41.7576 17.7232 41.6885 17.7898 41.6322 17.8716C41.5758 17.9546 41.547 18.0563 41.547 18.1778C41.547 18.3368 41.5792 18.4595 41.6448 18.5448C41.7092 18.6313 41.7898 18.6979 41.8841 18.7446C41.9796 18.7925 42.0832 18.8264 42.1959 18.8486C42.3098 18.8708 42.4133 18.8965 42.5088 18.9269C42.6032 18.9573 42.6837 18.9982 42.7481 19.0508C42.8126 19.1034 42.8459 19.1828 42.8459 19.2915V19.3067C42.8425 19.3909 42.7999 19.468 42.7182 19.5393C42.6365 19.6094 42.5192 19.6456 42.3662 19.6456H42.3409C42.2477 19.6456 42.1533 19.6129 42.0567 19.5486C41.96 19.4844 41.8807 19.4107 41.8174 19.3266C41.7932 19.2927 41.7668 19.2693 41.7369 19.2576C41.7069 19.246 41.677 19.2401 41.6471 19.2401C41.5976 19.2401 41.5528 19.2565 41.5125 19.2904C41.4722 19.3243 41.4527 19.3698 41.4527 19.4271C41.4527 19.4411 41.4607 19.4727 41.4768 19.5241C41.5171 19.6012 41.5689 19.6725 41.6322 19.7356C41.6954 19.7987 41.7656 19.8525 41.8415 19.8945C41.9186 19.9378 41.9992 19.9705 42.0843 19.995C42.1694 20.0184 42.2511 20.0313 42.3317 20.0313H42.3616C42.464 20.0313 42.5675 20.0161 42.6711 19.9857C42.7734 19.9553 42.8666 19.9109 42.9506 19.8513C43.0335 19.7917 43.1002 19.7192 43.1497 19.6316C43.2003 19.544 43.2256 19.4411 43.2256 19.3219V19.302ZM40.668 17.7232C40.668 17.659 40.6473 17.611 40.6071 17.5783C40.568 17.5468 40.5242 17.5304 40.4782 17.5304C40.4311 17.5304 40.3885 17.5468 40.3482 17.5783C40.3079 17.611 40.2884 17.659 40.2884 17.7232V19.2156C40.2884 19.3336 40.2458 19.4353 40.163 19.5194C40.0801 19.6036 39.9789 19.6456 39.8581 19.6456H39.8132C39.697 19.6456 39.5969 19.6036 39.5141 19.5194C39.4313 19.4353 39.3899 19.3336 39.3899 19.2156V17.7232C39.3899 17.659 39.3691 17.611 39.3289 17.5783C39.2898 17.5468 39.246 17.5304 39.2 17.5304C39.1529 17.5304 39.1103 17.5468 39.07 17.5783C39.0298 17.611 39.0102 17.659 39.0102 17.7232V19.2191C39.0102 19.3616 39.0309 19.4832 39.0746 19.5849C39.1183 19.6865 39.1759 19.7695 39.2495 19.8361C39.3231 19.9016 39.4083 19.9506 39.5061 19.9822C39.605 20.0149 39.7074 20.0313 39.8132 20.0313H39.8581C39.9455 20.0313 40.0272 20.0184 40.1032 19.9927C40.1802 19.967 40.2412 19.9296 40.2884 19.8817C40.2976 19.9331 40.3218 19.9705 40.3574 19.995C40.3942 20.0184 40.4345 20.0313 40.4782 20.0313C40.5242 20.0313 40.568 20.0149 40.6071 19.9822C40.6473 19.9506 40.668 19.9039 40.668 19.8431V17.7232ZM38.221 19.6807C38.1899 19.641 38.1416 19.6199 38.0783 19.6199H36.8208L38.2382 16.8561C38.2612 16.8117 38.2739 16.7685 38.2739 16.7241C38.2739 16.6633 38.252 16.6107 38.2083 16.5663C38.1657 16.523 38.1105 16.5008 38.0438 16.5008H36.616C36.5493 16.5008 36.501 16.5207 36.4711 16.5616C36.4412 16.6025 36.4262 16.6458 36.4262 16.6937C36.4262 16.7416 36.4412 16.7848 36.4711 16.8257C36.501 16.8655 36.5493 16.8865 36.616 16.8865H37.7987L36.3859 19.641C36.3664 19.6772 36.356 19.7181 36.356 19.7625C36.356 19.8268 36.3756 19.8829 36.4135 19.9319C36.4515 19.981 36.5056 20.0056 36.5758 20.0056H38.0783C38.1416 20.0056 38.1899 19.9857 38.221 19.9448C38.252 19.9039 38.2681 19.8607 38.2681 19.8127C38.2681 19.766 38.252 19.7216 38.221 19.6807Z" fill="white"/>
<path d="M73.1554 13.0623H72.2569V12.8064C72.2569 12.6837 72.2995 12.5808 72.3846 12.4979C72.4697 12.4149 72.5698 12.3728 72.686 12.3728H72.7355C72.8459 12.3728 72.9426 12.4149 73.0289 12.4979C73.1129 12.5808 73.1554 12.686 73.1554 12.8122V13.0623ZM73.5351 12.8087C73.5351 12.6907 73.5144 12.582 73.4718 12.4815C73.4304 12.3822 73.374 12.2945 73.3004 12.2209C73.2267 12.1461 73.1416 12.0888 73.0438 12.0479C72.9449 12.007 72.8413 11.9872 72.7309 11.9872H72.6814C72.571 11.9872 72.4674 12.0082 72.3696 12.0503C72.2707 12.0923 72.1856 12.1508 72.1119 12.2256C72.0383 12.3004 71.9808 12.3868 71.9394 12.4862C71.8979 12.5867 71.8772 12.6919 71.8772 12.804V13.6758C71.8772 13.7915 71.8979 13.8979 71.9394 13.996C71.9808 14.0942 72.0383 14.1795 72.1119 14.252C72.1856 14.3244 72.2707 14.3817 72.3696 14.4249C72.4674 14.467 72.571 14.488 72.6814 14.488H72.7309C72.9012 14.488 73.0496 14.4436 73.1784 14.3536C73.3061 14.2648 73.4005 14.1491 73.4603 14.0054C73.473 13.982 73.4799 13.954 73.4799 13.9201C73.4799 13.8617 73.4603 13.8149 73.42 13.7775C73.3798 13.7401 73.3349 13.7214 73.2854 13.7214C73.2521 13.7214 73.2198 13.7308 73.1899 13.7495C73.16 13.7682 73.137 13.7997 73.1209 13.8441C73.0864 13.9142 73.0381 13.975 72.9725 14.0264C72.9081 14.0767 72.8275 14.1024 72.7309 14.1024H72.6814C72.5652 14.1024 72.4651 14.0603 72.3811 13.9762C72.2983 13.892 72.2569 13.7915 72.2569 13.6747V13.4176H73.3452C73.3982 13.4176 73.443 13.3977 73.4799 13.3591C73.5167 13.3206 73.5351 13.275 73.5351 13.2247V12.8087ZM71.1432 14.1643C71.1133 14.1234 71.065 14.1024 70.9994 14.1024C70.9223 14.0989 70.8579 14.0697 70.8038 14.0159C70.7509 13.9622 70.7244 13.8967 70.7244 13.8184V11.12C70.7244 11.0558 70.7049 11.0079 70.6646 10.9751C70.6243 10.9436 70.5818 10.9272 70.5346 10.9272C70.4886 10.9272 70.4449 10.9436 70.4046 10.9751C70.3643 11.0079 70.3448 11.0558 70.3448 11.12V13.8231C70.3448 13.9142 70.3609 14.0007 70.3942 14.0825C70.4276 14.1632 70.4748 14.2344 70.5346 14.2952C70.5944 14.356 70.6646 14.4027 70.744 14.4366C70.8245 14.4705 70.9085 14.488 70.9994 14.488C71.065 14.488 71.1133 14.4682 71.1432 14.4284C71.1731 14.3887 71.1881 14.3455 71.1881 14.2976C71.1881 14.2496 71.1731 14.2052 71.1432 14.1643ZM68.9193 13.6712C68.9193 13.7927 68.8768 13.8955 68.7916 13.9785C68.7076 14.0603 68.6064 14.1024 68.4902 14.1024H68.4453C68.3188 14.1024 68.2164 14.0697 68.1381 14.0054C68.0599 13.9411 68.0208 13.8558 68.0208 13.7471V13.7062C68.0208 13.6186 68.0495 13.5508 68.1082 13.5041C68.1657 13.4561 68.2405 13.4187 68.3303 13.3919C68.42 13.365 68.5178 13.3439 68.6225 13.3288C68.7272 13.3136 68.8261 13.2937 68.9193 13.2703V13.6712ZM69.5509 14.1807C69.5256 14.1456 69.4854 14.1223 69.429 14.1129C69.3415 14.0954 69.299 14.0393 69.299 13.9446V12.7678C69.299 12.6603 69.2783 12.5586 69.2392 12.464C69.1989 12.3693 69.1437 12.2863 69.0746 12.2151C69.0045 12.1438 68.9205 12.0888 68.825 12.0479C68.7283 12.007 68.6248 11.9872 68.5155 11.9872H68.4798C68.4131 11.9872 68.3452 11.9942 68.275 12.0094C68.2049 12.0246 68.137 12.0503 68.0703 12.0865C68.0035 12.1216 67.9414 12.1695 67.8827 12.2302C67.8252 12.291 67.7757 12.367 67.7355 12.4593C67.7228 12.4827 67.7159 12.5131 67.7159 12.5505C67.7159 12.6042 67.7355 12.6474 67.7757 12.679C67.816 12.7117 67.8586 12.7281 67.9057 12.7281C67.9391 12.7281 67.9702 12.7199 68.0001 12.7047C68.0311 12.6895 68.0553 12.6638 68.076 12.6264C68.122 12.5411 68.175 12.478 68.2348 12.4359C68.2946 12.3939 68.3763 12.3728 68.4798 12.3728H68.5155C68.6248 12.3728 68.7191 12.4032 68.7997 12.464C68.8791 12.5247 68.9193 12.6311 68.9193 12.783C68.9193 12.797 68.9182 12.8122 68.917 12.8286C68.9147 12.8461 68.9113 12.859 68.9044 12.8695C68.8848 12.8964 68.8388 12.9174 68.7675 12.9326C68.695 12.9478 68.6133 12.9641 68.5201 12.9817C68.4269 12.998 68.328 13.0202 68.2256 13.0471C68.122 13.074 68.0277 13.1137 67.9403 13.1663C67.854 13.2189 67.7826 13.2879 67.7263 13.3743C67.6699 13.4608 67.6411 13.5695 67.6411 13.7015V13.7623C67.6411 13.8804 67.6641 13.9855 67.7113 14.0767C67.7573 14.1678 67.8183 14.2438 67.8931 14.3057C67.9679 14.3665 68.0541 14.4121 68.1508 14.4425C68.2474 14.4728 68.3452 14.488 68.4453 14.488H68.4902C68.6996 14.488 68.8791 14.4214 69.0298 14.2905C69.062 14.3373 69.1057 14.3782 69.1586 14.4121C69.2127 14.446 69.2817 14.4693 69.3692 14.4822C69.3715 14.4857 69.3841 14.488 69.4037 14.488C69.4635 14.488 69.5095 14.4682 69.5406 14.4296C69.5728 14.391 69.5889 14.3455 69.5889 14.2952C69.5889 14.2543 69.5762 14.2169 69.5509 14.1807ZM66.8611 12.804C66.8611 12.665 66.8392 12.5446 66.7967 12.4406C66.7529 12.3378 66.6943 12.2525 66.6218 12.1847C66.5482 12.1169 66.463 12.0678 66.3664 12.0351C66.2709 12.0035 66.1685 11.9872 66.0627 11.9872H66.0178C65.9303 11.9872 65.8498 12.0012 65.7727 12.0281C65.6956 12.055 65.6347 12.0923 65.5875 12.1391C65.5783 12.0888 65.5541 12.0503 65.5185 12.0246C65.4817 12 65.4414 11.9872 65.3988 11.9872C65.3482 11.9872 65.3033 12.0035 65.2631 12.0374C65.2239 12.0713 65.2032 12.1192 65.2032 12.18V14.2999C65.2032 14.3642 65.2239 14.4121 65.2631 14.4425C65.3033 14.4728 65.3471 14.488 65.3931 14.488C65.4402 14.488 65.4828 14.4728 65.5231 14.4425C65.5633 14.4121 65.5829 14.3642 65.5829 14.2999V12.804C65.5829 12.6813 65.6255 12.5797 65.7095 12.4967C65.7946 12.4137 65.8947 12.3728 66.0097 12.3728H66.0546C66.1743 12.3728 66.2743 12.4149 66.3572 12.499C66.44 12.5843 66.4814 12.6848 66.4814 12.804V14.2999C66.4814 14.3642 66.5021 14.4121 66.5424 14.4425C66.5827 14.4728 66.6264 14.488 66.6736 14.488C66.7207 14.488 66.7645 14.4728 66.8036 14.4425C66.8415 14.4121 66.8611 14.3642 66.8611 14.2999V12.804ZM63.9573 13.6723C63.9573 13.7904 63.9158 13.892 63.833 13.9762C63.749 14.0603 63.6489 14.1024 63.5327 14.1024H63.4879C63.3682 14.1024 63.267 14.0603 63.183 13.9762C63.1001 13.892 63.0587 13.7904 63.0587 13.6723V12.8029C63.0587 12.6848 63.1001 12.5832 63.183 12.499C63.267 12.4149 63.3659 12.3728 63.4833 12.3728H63.5327C63.6489 12.3728 63.749 12.4149 63.833 12.499C63.9158 12.5832 63.9573 12.6848 63.9573 12.8029V13.6723ZM64.3369 12.804C64.3369 12.6919 64.3162 12.5867 64.2748 12.4862C64.2322 12.3868 64.1747 12.3004 64.1022 12.2256C64.0286 12.1508 63.9435 12.0923 63.8445 12.0503C63.7467 12.0082 63.6432 11.9872 63.5327 11.9872H63.4833C63.3728 11.9872 63.2693 12.0082 63.1715 12.0503C63.0725 12.0923 62.9874 12.1508 62.9138 12.2256C62.8401 12.3004 62.7826 12.3868 62.7412 12.4862C62.6998 12.5867 62.6791 12.6919 62.6791 12.804V13.6758C62.6791 13.7915 62.6998 13.8979 62.7412 13.996C62.7826 14.0942 62.8401 14.1795 62.9138 14.252C62.9874 14.3244 63.0725 14.3817 63.1715 14.4249C63.2693 14.467 63.3728 14.488 63.4833 14.488H63.5327C63.6432 14.488 63.7467 14.467 63.8445 14.4249C63.9435 14.3817 64.0286 14.3244 64.1022 14.252C64.1747 14.1795 64.2322 14.0942 64.2748 13.996C64.3162 13.8979 64.3369 13.7915 64.3369 13.6758V12.804ZM61.7851 12.18C61.7851 12.1157 61.7656 12.0678 61.7253 12.0351C61.685 12.0035 61.6425 11.9872 61.5953 11.9872C61.5493 11.9872 61.5056 12.0035 61.4653 12.0351C61.4262 12.0678 61.4055 12.1157 61.4055 12.18V14.2999C61.4055 14.3642 61.4262 14.4121 61.4653 14.4425C61.5056 14.4728 61.5493 14.488 61.5953 14.488C61.6425 14.488 61.685 14.4728 61.7253 14.4425C61.7656 14.4121 61.7851 14.3642 61.7851 14.2999V12.18ZM61.7851 11.12C61.7851 11.0558 61.7656 11.0079 61.7253 10.9751C61.685 10.9436 61.6425 10.9272 61.5953 10.9272C61.5493 10.9272 61.5056 10.9436 61.4653 10.9751C61.4262 11.0079 61.4055 11.0558 61.4055 11.12V11.2311C61.4055 11.2953 61.4262 11.3444 61.4653 11.376C61.5056 11.4075 61.5493 11.4239 61.5953 11.4239C61.6425 11.4239 61.685 11.4075 61.7253 11.376C61.7656 11.3444 61.7851 11.2953 61.7851 11.2311V11.12ZM60.5564 14.169C60.5277 14.1316 60.4839 14.1094 60.4241 14.1024C60.3482 14.0954 60.2803 14.0673 60.2216 14.0182C60.1641 13.9703 60.1342 13.9014 60.1342 13.8137V12.388H60.4046C60.4678 12.388 60.515 12.367 60.5461 12.3272C60.5783 12.2863 60.5944 12.2419 60.5944 12.1952C60.5944 12.1473 60.5783 12.104 60.5461 12.0631C60.515 12.0222 60.4678 12.0024 60.4046 12.0024H60.1342V11.12C60.1342 11.0558 60.1146 11.0079 60.0744 10.9751C60.0352 10.9436 59.9915 10.9272 59.9444 10.9272C59.8983 10.9272 59.8546 10.9436 59.8155 10.9751C59.7752 11.0079 59.7557 11.0558 59.7557 11.12V12.0024H59.5808C59.5175 12.0024 59.4692 12.0222 59.4381 12.0631C59.4059 12.104 59.391 12.1473 59.391 12.1952C59.391 12.2419 59.4059 12.2863 59.4381 12.3272C59.4692 12.367 59.5175 12.388 59.5808 12.388H59.7557V13.8231C59.7557 13.9142 59.7718 14.0007 59.8051 14.0825C59.8385 14.1632 59.8845 14.2344 59.9444 14.2952C60.0053 14.356 60.0744 14.4027 60.1549 14.4366C60.2343 14.4705 60.3194 14.488 60.4092 14.488C60.4759 14.488 60.5242 14.4682 60.5541 14.4284C60.584 14.3887 60.599 14.3455 60.599 14.2976C60.599 14.2496 60.5852 14.2064 60.5564 14.169ZM58.2336 13.6712C58.2336 13.7927 58.191 13.8955 58.1059 13.9785C58.0207 14.0603 57.9206 14.1024 57.8033 14.1024H57.7596C57.633 14.1024 57.5306 14.0697 57.4524 14.0054C57.3742 13.9411 57.335 13.8558 57.335 13.7471V13.7062C57.335 13.6186 57.3638 13.5508 57.4225 13.5041C57.48 13.4561 57.5548 13.4187 57.6445 13.3919C57.7343 13.365 57.8309 13.3439 57.9368 13.3288C58.0414 13.3136 58.1404 13.2937 58.2336 13.2703V13.6712ZM58.8652 14.1807C58.8399 14.1456 58.7996 14.1223 58.7421 14.1129C58.6558 14.0954 58.6132 14.0393 58.6132 13.9446V12.7678C58.6132 12.6603 58.5925 12.5586 58.5523 12.464C58.5131 12.3693 58.4579 12.2863 58.3877 12.2151C58.3187 12.1438 58.2347 12.0888 58.1381 12.0479C58.0414 12.007 57.9391 11.9872 57.8286 11.9872H57.7941C57.7274 11.9872 57.6595 11.9942 57.5893 12.0094C57.5191 12.0246 57.4512 12.0503 57.3845 12.0865C57.3178 12.1216 57.2557 12.1695 57.197 12.2302C57.1395 12.291 57.09 12.367 57.0497 12.4593C57.0371 12.4827 57.0302 12.5131 57.0302 12.5505C57.0302 12.6042 57.0497 12.6474 57.09 12.679C57.1303 12.7117 57.1728 12.7281 57.22 12.7281C57.2534 12.7281 57.2844 12.7199 57.3143 12.7047C57.3442 12.6895 57.3696 12.6638 57.3891 12.6264C57.4363 12.5411 57.4892 12.478 57.549 12.4359C57.6089 12.3939 57.6905 12.3728 57.7941 12.3728H57.8286C57.9391 12.3728 58.0334 12.4032 58.1139 12.464C58.1933 12.5247 58.2336 12.6311 58.2336 12.783C58.2336 12.797 58.2324 12.8122 58.2313 12.8286C58.229 12.8461 58.2255 12.859 58.2186 12.8695C58.1979 12.8964 58.153 12.9174 58.0806 12.9326C58.0092 12.9478 57.9275 12.9641 57.8344 12.9817C57.7412 12.998 57.6422 13.0202 57.5398 13.0471C57.4363 13.074 57.3408 13.1137 57.2545 13.1663C57.1682 13.2189 57.0969 13.2879 57.0405 13.3743C56.983 13.4608 56.9554 13.5695 56.9554 13.7015V13.7623C56.9554 13.8804 56.9784 13.9855 57.0244 14.0767C57.0716 14.1678 57.1326 14.2438 57.2073 14.3057C57.2821 14.3665 57.3673 14.4121 57.4639 14.4425C57.5605 14.4728 57.6595 14.488 57.7596 14.488H57.8033C58.0138 14.488 58.1933 14.4214 58.3429 14.2905C58.3762 14.3373 58.42 14.3782 58.4729 14.4121C58.5258 14.446 58.596 14.4693 58.6823 14.4822C58.6857 14.4857 58.6972 14.488 58.7179 14.488C58.7778 14.488 58.8238 14.4682 58.8548 14.4296C58.8871 14.391 58.902 14.3455 58.902 14.2952C58.902 14.2543 58.8905 14.2169 58.8652 14.1807ZM56.1754 12.804C56.1754 12.665 56.1535 12.5446 56.1098 12.4406C56.0672 12.3378 56.0085 12.2525 55.9361 12.1847C55.8624 12.1169 55.7773 12.0678 55.6806 12.0351C55.584 12.0035 55.4828 11.9872 55.3769 11.9872H55.332C55.2446 11.9872 55.1629 12.0012 55.087 12.0281C55.0099 12.055 54.9489 12.0923 54.9018 12.1391C54.8914 12.0888 54.8684 12.0503 54.8316 12.0246C54.7959 12 54.7557 11.9872 54.7119 11.9872C54.6625 11.9872 54.6176 12.0035 54.5773 12.0374C54.5382 12.0713 54.5175 12.1192 54.5175 12.18V14.2999C54.5175 14.3642 54.5382 14.4121 54.5773 14.4425C54.6176 14.4728 54.6602 14.488 54.7073 14.488C54.7534 14.488 54.7971 14.4728 54.8373 14.4425C54.8776 14.4121 54.8972 14.3642 54.8972 14.2999V12.804C54.8972 12.6813 54.9397 12.5797 55.0237 12.4967C55.1077 12.4137 55.2078 12.3728 55.324 12.3728H55.3689C55.4874 12.3728 55.5886 12.4149 55.6714 12.499C55.7543 12.5843 55.7957 12.6848 55.7957 12.804V14.2999C55.7957 14.3642 55.8164 14.4121 55.8567 14.4425C55.8969 14.4728 55.9407 14.488 55.9878 14.488C56.035 14.488 56.0776 14.4728 56.1167 14.4425C56.1558 14.4121 56.1754 14.3642 56.1754 14.2999V12.804ZM53.8238 12.2361C53.7639 12.1473 53.6857 12.0842 53.5914 12.0456C53.497 12.007 53.4004 11.9872 53.3049 11.9872C53.237 11.9872 53.1829 11.9918 53.1392 12.0024C53.0966 12.0129 53.0598 12.0246 53.0299 12.0374C52.9931 12.0514 52.9643 12.0678 52.9448 12.0888C52.9275 12.0514 52.9045 12.0246 52.8746 12.0094C52.8447 11.9942 52.8136 11.9872 52.7803 11.9872C52.7331 11.9872 52.6894 12.0035 52.648 12.0374C52.6065 12.0713 52.5858 12.1192 52.5858 12.18V14.2905C52.5858 14.3572 52.6054 14.4074 52.6457 14.4401C52.6848 14.4717 52.7285 14.488 52.7757 14.488C52.8217 14.488 52.8654 14.4717 52.9045 14.4401C52.9448 14.4074 52.9643 14.3572 52.9643 14.2905V12.7129C52.9643 12.672 52.9678 12.6311 52.9747 12.5902C52.9816 12.5505 52.9966 12.5142 53.0196 12.4815C53.0426 12.4499 53.0759 12.4231 53.1197 12.4032C53.1622 12.3822 53.2232 12.3728 53.2991 12.3728C53.3624 12.3728 53.4119 12.3857 53.4464 12.4102C53.4821 12.4359 53.5085 12.4593 53.5292 12.4792C53.5753 12.5259 53.627 12.5505 53.6834 12.5505C53.734 12.5505 53.7766 12.5329 53.8134 12.499C53.8502 12.4651 53.8686 12.4219 53.8686 12.367C53.8686 12.3272 53.8537 12.2828 53.8238 12.2361ZM51.3974 13.0623H50.4977V12.8064C50.4977 12.6837 50.5403 12.5808 50.6254 12.4979C50.7105 12.4149 50.8106 12.3728 50.928 12.3728H50.9774C51.0879 12.3728 51.1845 12.4149 51.2697 12.4979C51.3548 12.5808 51.3974 12.686 51.3974 12.8122V13.0623ZM51.777 12.8087C51.777 12.6907 51.7552 12.582 51.7138 12.4815C51.6723 12.3822 51.6148 12.2945 51.5423 12.2209C51.4687 12.1461 51.3824 12.0888 51.2846 12.0479C51.1868 12.007 51.0821 11.9872 50.9728 11.9872H50.9222C50.8129 11.9872 50.7082 12.0082 50.6104 12.0503C50.5126 12.0923 50.4264 12.1508 50.3539 12.2256C50.2802 12.3004 50.2227 12.3868 50.1813 12.4862C50.1399 12.5867 50.1192 12.6919 50.1192 12.804V13.6758C50.1192 13.7915 50.1399 13.8979 50.1813 13.996C50.2227 14.0942 50.2802 14.1795 50.3539 14.252C50.4264 14.3244 50.5126 14.3817 50.6104 14.4249C50.7082 14.467 50.8129 14.488 50.9222 14.488H50.9728C51.142 14.488 51.2915 14.4436 51.4192 14.3536C51.5481 14.2648 51.6413 14.1491 51.7011 14.0054C51.7149 13.982 51.7218 13.954 51.7218 13.9201C51.7218 13.8617 51.7011 13.8149 51.662 13.7775C51.6217 13.7401 51.5769 13.7214 51.5274 13.7214C51.494 13.7214 51.4618 13.7308 51.4319 13.7495C51.402 13.7682 51.379 13.7997 51.3617 13.8441C51.3283 13.9142 51.28 13.975 51.2144 14.0264C51.15 14.0767 51.0695 14.1024 50.9728 14.1024H50.9222C50.806 14.1024 50.7059 14.0603 50.6231 13.9762C50.5403 13.892 50.4977 13.7915 50.4977 13.6747V13.4176H51.5872C51.6401 13.4176 51.685 13.3977 51.7218 13.3591C51.7586 13.3206 51.777 13.275 51.777 13.2247V12.8087ZM49.3863 14.169C49.3576 14.1316 49.3138 14.1094 49.254 14.1024C49.1769 14.0954 49.1091 14.0673 49.0515 14.0182C48.9929 13.9703 48.9641 13.9014 48.9641 13.8137V12.388H49.2333C49.2966 12.388 49.3438 12.367 49.376 12.3272C49.407 12.2863 49.4231 12.2419 49.4231 12.1952C49.4231 12.1473 49.407 12.104 49.376 12.0631C49.3438 12.0222 49.2966 12.0024 49.2333 12.0024H48.9641V11.12C48.9641 11.0558 48.9434 11.0079 48.9043 10.9751C48.864 10.9436 48.8203 10.9272 48.7743 10.9272C48.7271 10.9272 48.6845 10.9436 48.6443 10.9751C48.604 11.0079 48.5844 11.0558 48.5844 11.12V12.0024H48.4096C48.3463 12.0024 48.2991 12.0222 48.2669 12.0631C48.2358 12.104 48.2197 12.1473 48.2197 12.1952C48.2197 12.2419 48.2358 12.2863 48.2669 12.3272C48.2991 12.367 48.3463 12.388 48.4096 12.388H48.5844V13.8231C48.5844 13.9142 48.6005 14.0007 48.6339 14.0825C48.6673 14.1632 48.7144 14.2344 48.7743 14.2952C48.8341 14.356 48.9043 14.4027 48.9836 14.4366C49.0642 14.4705 49.1482 14.488 49.2391 14.488C49.3046 14.488 49.353 14.4682 49.3829 14.4284C49.4128 14.3887 49.4277 14.3455 49.4277 14.2976C49.4277 14.2496 49.4139 14.2064 49.3863 14.169ZM47.5156 12.804C47.5156 12.665 47.4938 12.5446 47.45 12.4406C47.4075 12.3378 47.3488 12.2525 47.2752 12.1847C47.2027 12.1169 47.1176 12.0678 47.0209 12.0351C46.9243 12.0035 46.823 11.9872 46.716 11.9872H46.6712C46.5849 11.9872 46.5032 12.0012 46.4273 12.0281C46.3502 12.055 46.2892 12.0923 46.242 12.1391C46.2328 12.0888 46.2087 12.0503 46.1719 12.0246C46.1362 12 46.0959 11.9872 46.0522 11.9872C46.0027 11.9872 45.9579 12.0035 45.9176 12.0374C45.8773 12.0713 45.8578 12.1192 45.8578 12.18V14.2999C45.8578 14.3642 45.8773 14.4121 45.9176 14.4425C45.9579 14.4728 46.0004 14.488 46.0476 14.488C46.0936 14.488 46.1373 14.4728 46.1776 14.4425C46.2167 14.4121 46.2374 14.3642 46.2374 14.2999V12.804C46.2374 12.6813 46.28 12.5797 46.364 12.4967C46.448 12.4137 46.5481 12.3728 46.6643 12.3728H46.7091C46.8276 12.3728 46.9289 12.4149 47.0117 12.499C47.0945 12.5843 47.136 12.6848 47.136 12.804V14.2999C47.136 14.3642 47.1567 14.4121 47.1969 14.4425C47.2372 14.4728 47.2809 14.488 47.3281 14.488C47.3753 14.488 47.4178 14.4728 47.457 14.4425C47.4961 14.4121 47.5156 14.3642 47.5156 14.2999V12.804ZM44.8488 11.12C44.8488 11.0558 44.8292 11.0079 44.789 10.9751C44.7487 10.9436 44.705 10.9272 44.659 10.9272C44.6118 10.9272 44.5692 10.9436 44.529 10.9751C44.4887 11.0079 44.4691 11.0558 44.4691 11.12V14.2999C44.4691 14.3642 44.4887 14.4121 44.529 14.4425C44.5692 14.4728 44.6118 14.488 44.659 14.488C44.705 14.488 44.7487 14.4728 44.789 14.4425C44.8292 14.4121 44.8488 14.3642 44.8488 14.2999V11.12ZM42.0025 12.2361C41.9427 12.1473 41.8656 12.0842 41.7701 12.0456C41.6757 12.007 41.5803 11.9872 41.4836 11.9872C41.4169 11.9872 41.3617 11.9918 41.3191 12.0024C41.2754 12.0129 41.2386 12.0246 41.2086 12.0374C41.1718 12.0514 41.1442 12.0678 41.1235 12.0888C41.1074 12.0514 41.0844 12.0246 41.0545 12.0094C41.0246 11.9942 40.9924 11.9872 40.959 11.9872C40.913 11.9872 40.8681 12.0035 40.8267 12.0374C40.7853 12.0713 40.7646 12.1192 40.7646 12.18V14.2905C40.7646 14.3572 40.7841 14.4074 40.8244 14.4401C40.8647 14.4717 40.9072 14.488 40.9544 14.488C41.0004 14.488 41.0441 14.4717 41.0844 14.4401C41.1235 14.4074 41.1442 14.3572 41.1442 14.2905V12.7129C41.1442 12.672 41.1477 12.6311 41.1534 12.5902C41.1603 12.5505 41.1753 12.5142 41.1994 12.4815C41.2225 12.4499 41.2558 12.4231 41.2984 12.4032C41.3421 12.3822 41.4019 12.3728 41.479 12.3728C41.5411 12.3728 41.5906 12.3857 41.6263 12.4102C41.6608 12.4359 41.6884 12.4593 41.708 12.4792C41.7551 12.5259 41.8058 12.5505 41.8633 12.5505C41.9127 12.5505 41.9565 12.5329 41.9933 12.499C42.0289 12.4651 42.0474 12.4219 42.0474 12.367C42.0474 12.3272 42.0324 12.2828 42.0025 12.2361ZM39.8741 12.18C39.8741 12.1157 39.8534 12.0678 39.8143 12.0351C39.774 12.0035 39.7303 11.9872 39.6842 11.9872C39.6371 11.9872 39.5945 12.0035 39.5542 12.0351C39.514 12.0666 39.4944 12.1157 39.4944 12.1788V13.6723C39.4944 13.7904 39.453 13.8909 39.369 13.9762C39.2862 14.0603 39.1849 14.1024 39.0653 14.1024H39.0204C38.9031 14.1024 38.803 14.0603 38.7201 13.9762C38.6373 13.8909 38.5959 13.7904 38.5959 13.6723V12.1788C38.5959 12.1157 38.5752 12.0666 38.5361 12.0351C38.4958 12.0035 38.4521 11.9872 38.4061 11.9872C38.3589 11.9872 38.3163 12.0035 38.2761 12.0351C38.2358 12.0678 38.2162 12.1157 38.2162 12.18V13.6758C38.2162 13.8184 38.2381 13.94 38.2807 14.0416C38.3244 14.1433 38.3819 14.2263 38.4555 14.2929C38.5292 14.3583 38.6143 14.4074 38.7132 14.4401C38.811 14.4717 38.9134 14.488 39.0204 14.488H39.0653C39.1516 14.488 39.2333 14.4752 39.3092 14.4495C39.3863 14.4238 39.4472 14.3864 39.4944 14.3385C39.5048 14.3899 39.5278 14.4284 39.5646 14.4518C39.6003 14.4752 39.6405 14.488 39.6842 14.488C39.7303 14.488 39.774 14.4717 39.8143 14.4401C39.8534 14.4074 39.8741 14.3607 39.8741 14.2999V12.18ZM38.7708 11.12C38.7708 11.0558 38.7501 11.0079 38.7098 10.9751C38.6707 10.9436 38.6269 10.9272 38.5809 10.9272C38.5338 10.9272 38.4912 10.9436 38.4509 10.9751C38.4107 11.0079 38.3911 11.0558 38.3911 11.12V11.2311C38.3911 11.2953 38.4107 11.3444 38.4509 11.376C38.4912 11.4075 38.5338 11.4239 38.5809 11.4239C38.6269 11.4239 38.6707 11.4075 38.7098 11.376C38.7501 11.3444 38.7708 11.2953 38.7708 11.2311V11.12ZM39.6889 11.12C39.6889 11.0558 39.6681 11.0079 39.6267 10.9751C39.5853 10.9436 39.5404 10.9272 39.4944 10.9272C39.4472 10.9272 39.4047 10.9436 39.3667 10.9751C39.3287 11.0079 39.3092 11.0558 39.3092 11.12V11.2311C39.3092 11.2953 39.3299 11.3444 39.369 11.376C39.4093 11.4075 39.453 11.4239 39.499 11.4239C39.5462 11.4239 39.5888 11.4075 39.629 11.376C39.6693 11.3444 39.6889 11.2953 39.6889 11.2311V11.12ZM37.4673 10.988C37.435 10.9471 37.3879 10.9272 37.3246 10.9272C37.2314 10.9272 37.1463 10.9436 37.068 10.9775C36.9898 11.0114 36.9208 11.0581 36.8633 11.1177C36.8046 11.1761 36.7597 11.2474 36.7286 11.3304C36.6964 11.4134 36.6803 11.5022 36.6803 11.5968V12.0024H36.571C36.5077 12.0024 36.4606 12.0222 36.4284 12.0631C36.3973 12.104 36.3812 12.1473 36.3812 12.1952C36.3812 12.2419 36.3973 12.2863 36.4284 12.3272C36.4606 12.367 36.5077 12.388 36.571 12.388H36.6803V14.2999C36.6803 14.3642 36.701 14.4121 36.7401 14.4425C36.7804 14.4728 36.8241 14.488 36.8702 14.488C36.9173 14.488 36.9599 14.4728 37.0002 14.4425C37.0404 14.4121 37.06 14.3642 37.06 14.2999V12.388H37.2947C37.358 12.388 37.4051 12.367 37.4373 12.3272C37.4684 12.2863 37.4845 12.2419 37.4845 12.1952C37.4845 12.1473 37.4696 12.104 37.4396 12.0631C37.4097 12.0222 37.3614 12.0024 37.2947 12.0024H37.06V11.5968C37.06 11.5186 37.0841 11.4519 37.1325 11.3958C37.1808 11.3409 37.2452 11.3129 37.3246 11.3129C37.3879 11.3129 37.435 11.2918 37.4673 11.2521C37.4983 11.2112 37.5144 11.1668 37.5144 11.12C37.5144 11.0721 37.4983 11.0289 37.4673 10.988Z" fill="white"/>
<path d="M83.7574 8.62603C83.7298 8.58864 83.6849 8.56643 83.6251 8.55942C83.548 8.55241 83.4813 8.52436 83.4226 8.47528C83.3651 8.42737 83.3363 8.35842 83.3363 8.27077V6.84504H83.6055C83.6676 6.84504 83.716 6.82518 83.747 6.78427C83.7792 6.74337 83.7953 6.70013 83.7953 6.65222C83.7953 6.60547 83.7792 6.56106 83.747 6.52016C83.716 6.47926 83.6676 6.45939 83.6055 6.45939H83.3363V5.57708C83.3363 5.5128 83.3156 5.46489 83.2753 5.43217C83.2362 5.40062 83.1925 5.38426 83.1465 5.38426C83.0993 5.38426 83.0567 5.40062 83.0165 5.43217C82.9762 5.46489 82.9566 5.5128 82.9566 5.57708V6.45939H82.7818C82.7185 6.45939 82.6713 6.47926 82.6391 6.52016C82.608 6.56106 82.5919 6.60547 82.5919 6.65222C82.5919 6.70013 82.608 6.74337 82.6391 6.78427C82.6713 6.82518 82.7185 6.84504 82.7818 6.84504H82.9566V8.28012C82.9566 8.37127 82.9727 8.45775 83.0061 8.53955C83.0395 8.62019 83.0866 8.69148 83.1465 8.75224C83.2063 8.81301 83.2753 8.85976 83.3559 8.89365C83.4352 8.92754 83.5204 8.94507 83.6101 8.94507C83.6768 8.94507 83.7252 8.9252 83.7551 8.88547C83.785 8.84573 83.7999 8.8025 83.7999 8.75458C83.7999 8.70667 83.7861 8.66343 83.7574 8.62603ZM82.1191 5.44502C82.088 5.40412 82.0409 5.38426 81.9776 5.38426C81.8844 5.38426 81.7981 5.40178 81.7199 5.43451C81.6428 5.4684 81.5738 5.51514 81.5151 5.57474C81.4576 5.63317 81.4127 5.70446 81.3805 5.78743C81.3494 5.87041 81.3333 5.95922 81.3333 6.05388V6.45939H81.224C81.1607 6.45939 81.1136 6.47926 81.0813 6.52016C81.0491 6.56106 81.0342 6.60547 81.0342 6.65222C81.0342 6.70013 81.0491 6.74337 81.0813 6.78427C81.1136 6.82518 81.1607 6.84504 81.224 6.84504H81.3333V8.75692C81.3333 8.82119 81.354 8.86911 81.3931 8.89949C81.4334 8.92988 81.476 8.94507 81.5231 8.94507C81.5692 8.94507 81.6129 8.92988 81.6531 8.89949C81.6934 8.86911 81.713 8.82119 81.713 8.75692V6.84504H81.9477C82.0109 6.84504 82.0581 6.82518 82.0892 6.78427C82.1214 6.74337 82.1375 6.70013 82.1375 6.65222C82.1375 6.60547 82.1225 6.56106 82.0926 6.52016C82.0627 6.47926 82.0144 6.45939 81.9477 6.45939H81.713V6.05388C81.713 5.97558 81.7371 5.90897 81.7854 5.85288C81.8338 5.79795 81.8982 5.7699 81.9776 5.7699C82.0409 5.7699 82.088 5.75004 82.1191 5.70913C82.1513 5.66823 82.1674 5.62499 82.1674 5.57708C82.1674 5.52917 82.1513 5.48593 82.1191 5.44502ZM79.8147 8.1282C79.8147 8.24973 79.7721 8.35257 79.687 8.43555C79.6018 8.51852 79.5017 8.55942 79.3844 8.55942H79.3395C79.2141 8.55942 79.1117 8.5267 79.0335 8.46242C78.9552 8.39932 78.915 8.31284 78.915 8.20416V8.16326C78.915 8.07561 78.9449 8.00783 79.0036 7.96108C79.0611 7.91317 79.1347 7.87577 79.2256 7.84889C79.3153 7.82202 79.4131 7.80098 79.5178 7.78579C79.6225 7.7706 79.7215 7.75073 79.8147 7.72736V8.1282ZM80.4463 8.63772C80.421 8.60266 80.3807 8.57929 80.3232 8.56994C80.2369 8.55241 80.1943 8.49631 80.1943 8.40166V7.22485C80.1943 7.11733 80.1736 7.01566 80.1333 6.921C80.0942 6.82634 80.039 6.74337 79.9688 6.67208C79.8986 6.60197 79.817 6.54587 79.7192 6.50497C79.6225 6.46407 79.5201 6.4442 79.4108 6.4442H79.3752C79.3084 6.4442 79.2406 6.45238 79.1704 6.46757C79.1014 6.48277 79.0323 6.50731 78.9656 6.54354C78.8989 6.57859 78.8367 6.62651 78.7781 6.68728C78.7205 6.74921 78.6711 6.82518 78.632 6.91633C78.6181 6.9397 78.6112 6.97009 78.6112 7.00748C78.6112 7.06124 78.632 7.10448 78.6711 7.1372C78.7113 7.16875 78.7539 7.18511 78.8011 7.18511C78.8344 7.18511 78.8655 7.17693 78.8954 7.16174C78.9253 7.14655 78.9506 7.12084 78.9702 7.08344C79.0174 6.9993 79.0703 6.93503 79.1313 6.89296C79.1899 6.85088 79.2716 6.82985 79.3752 6.82985H79.4108C79.5201 6.82985 79.6145 6.86023 79.695 6.921C79.7744 6.98177 79.8147 7.08812 79.8147 7.24004C79.8147 7.25406 79.8135 7.26925 79.8124 7.28678C79.8101 7.30314 79.8066 7.31717 79.7997 7.32652C79.779 7.3534 79.7341 7.37443 79.6628 7.39079C79.5903 7.40598 79.5086 7.42118 79.4143 7.43871C79.3222 7.45507 79.2233 7.47727 79.1198 7.50415C79.0174 7.53103 78.923 7.57076 78.8356 7.62335C78.7493 7.67594 78.678 7.74489 78.6205 7.83136C78.5641 7.91784 78.5365 8.02653 78.5365 8.15858V8.21935C78.5365 8.33738 78.5595 8.44256 78.6055 8.53371C78.6527 8.62486 78.7136 8.70082 78.7884 8.76159C78.8632 8.82353 78.9495 8.86911 79.045 8.89949C79.1428 8.92988 79.2406 8.94507 79.3395 8.94507H79.3844C79.5949 8.94507 79.7744 8.87846 79.924 8.7464C79.9573 8.79432 80.001 8.83522 80.054 8.86911C80.1069 8.903 80.1771 8.92637 80.2634 8.93923C80.2668 8.94273 80.2783 8.94507 80.299 8.94507C80.3588 8.94507 80.4037 8.9252 80.4359 8.88664C80.4681 8.84807 80.4831 8.8025 80.4831 8.75224C80.4831 8.71134 80.4716 8.67395 80.4463 8.63772ZM77.7679 7.26107C77.7679 7.14889 77.7472 7.04371 77.7058 6.94438C77.6632 6.84387 77.6069 6.75739 77.5332 6.6826C77.4608 6.60781 77.3745 6.55055 77.2767 6.50731C77.1777 6.46524 77.0742 6.4442 76.9637 6.4442H76.9235C76.8372 6.4442 76.7544 6.45823 76.6738 6.4851C76.5944 6.51198 76.5335 6.54938 76.4897 6.59612V5.57708C76.4897 5.5128 76.469 5.46489 76.4299 5.43217C76.3897 5.40062 76.3459 5.38426 76.2999 5.38426C76.2539 5.38426 76.2102 5.40062 76.1699 5.43217C76.1296 5.46489 76.1101 5.5128 76.1101 5.57708V8.75692C76.1101 8.82119 76.1296 8.86911 76.1699 8.89949C76.2102 8.92988 76.2539 8.94507 76.2999 8.94507C76.3459 8.94507 76.3897 8.92988 76.4299 8.89949C76.469 8.86911 76.4897 8.82119 76.4897 8.75692V7.23536C76.4897 7.17109 76.5036 7.11383 76.53 7.06358C76.5565 7.01216 76.5898 6.96892 76.6324 6.93386C76.6738 6.8988 76.7221 6.87192 76.7774 6.85556C76.8314 6.83803 76.8878 6.82985 76.9442 6.82985C76.9971 6.82985 77.05 6.83803 77.1041 6.85556C77.157 6.87192 77.2053 6.8988 77.2491 6.93386C77.2916 6.96892 77.3262 7.01449 77.3515 7.06825C77.3756 7.12201 77.3883 7.18628 77.3883 7.26107V8.75692C77.3883 8.82119 77.4078 8.86911 77.4481 8.89949C77.4884 8.92988 77.5321 8.94507 77.5781 8.94507C77.6241 8.94507 77.6678 8.92988 77.7081 8.89949C77.7472 8.86911 77.7679 8.82119 77.7679 8.75692V7.26107ZM75.2518 7.97861C75.2116 7.94589 75.1678 7.9307 75.1218 7.9307C75.0746 7.9307 75.0321 7.94589 74.9941 7.97861C74.9561 8.01016 74.9354 8.06042 74.932 8.1282C74.9251 8.24623 74.8814 8.3479 74.802 8.43204C74.7214 8.51735 74.6248 8.55942 74.5075 8.55942H74.4626C74.3429 8.55942 74.2417 8.51735 74.1577 8.43321C74.0749 8.34907 74.0335 8.2474 74.0335 8.12937V7.25991C74.0335 7.14187 74.0749 7.0402 74.1577 6.95606C74.2417 6.87192 74.3406 6.82985 74.4568 6.82985H74.5075C74.6248 6.82985 74.7214 6.87075 74.802 6.95139C74.8814 7.03319 74.9251 7.1372 74.932 7.26575C74.9354 7.33002 74.9561 7.37794 74.9941 7.40832C75.0321 7.43871 75.0746 7.4539 75.1218 7.4539C75.1678 7.4539 75.2116 7.43754 75.2518 7.40598C75.2909 7.37326 75.3116 7.32535 75.3116 7.26107C75.3116 7.14889 75.2898 7.04371 75.2461 6.94438C75.2024 6.84387 75.146 6.75739 75.0746 6.6826C75.0022 6.60781 74.917 6.55055 74.8192 6.50731C74.7214 6.46524 74.6168 6.4442 74.5075 6.4442H74.4568C74.3475 6.4442 74.2428 6.46524 74.1462 6.50731C74.0473 6.55055 73.9621 6.60781 73.8908 6.68027C73.8195 6.75272 73.7619 6.8392 73.7182 6.93853C73.6745 7.03903 73.6538 7.14655 73.6538 7.26107V8.13287C73.6538 8.24857 73.6745 8.35491 73.7159 8.45308C73.7573 8.55124 73.8149 8.63655 73.8885 8.70901C73.9621 8.78146 74.0473 8.83872 74.1462 8.88079C74.2428 8.92403 74.3475 8.94507 74.4568 8.94507H74.5075C74.6168 8.94507 74.7214 8.92286 74.8192 8.88079C74.917 8.83755 75.0033 8.77912 75.077 8.7055C75.1494 8.63188 75.207 8.54657 75.2495 8.4484C75.2909 8.35024 75.3116 8.24272 75.3116 8.1282C75.3116 8.06042 75.2909 8.01016 75.2518 7.97861ZM72.8876 8.21584C72.8876 8.05107 72.8554 7.92135 72.7909 7.82669C72.7253 7.73203 72.646 7.65841 72.5505 7.60699C72.4561 7.5544 72.3514 7.51583 72.2387 7.49013C72.1259 7.46442 72.0213 7.43987 71.9269 7.41416C71.8314 7.38845 71.752 7.35456 71.6865 7.31249C71.622 7.27042 71.5898 7.20615 71.5898 7.1185V7.10331C71.5933 7.02852 71.6312 6.96424 71.7049 6.91048C71.7773 6.85673 71.8843 6.82985 72.0236 6.82985H72.0443C72.157 6.82985 72.2456 6.84621 72.3077 6.87776C72.3722 6.91049 72.4297 6.9397 72.4837 6.96658C72.5229 6.98645 72.5597 6.99696 72.593 6.99696C72.646 6.99696 72.6897 6.97827 72.723 6.94087C72.7564 6.90464 72.7725 6.8614 72.7725 6.81466C72.7725 6.75272 72.7495 6.70364 72.7035 6.66507C72.6828 6.64871 72.654 6.62651 72.6161 6.6008C72.5769 6.57509 72.5309 6.55172 72.4757 6.52951C72.4205 6.50731 72.3572 6.48744 72.2859 6.46991C72.2145 6.45238 72.1352 6.4442 72.0489 6.4442H72.0293C71.9488 6.4442 71.8613 6.45472 71.767 6.47692C71.6715 6.49913 71.5841 6.53535 71.5024 6.58561C71.4207 6.63703 71.3517 6.70364 71.2953 6.78544C71.2378 6.86841 71.2102 6.97009 71.2102 7.09162C71.2102 7.25056 71.2424 7.37326 71.3068 7.45857C71.3724 7.54505 71.4518 7.61166 71.5473 7.65841C71.6416 7.70632 71.7463 7.74021 71.859 7.76242C71.9718 7.78462 72.0765 7.81033 72.1708 7.84071C72.2663 7.8711 72.3457 7.912 72.4113 7.96459C72.4757 8.01718 72.5091 8.09664 72.5091 8.20533V8.22052C72.5056 8.30466 72.4619 8.38179 72.3814 8.45308C72.2997 8.52436 72.1823 8.55942 72.0293 8.55942H72.004C71.9108 8.55942 71.8153 8.5267 71.7198 8.46242C71.6232 8.39932 71.5426 8.32453 71.4794 8.23922C71.4564 8.20649 71.4299 8.18312 71.4 8.17144C71.3701 8.15975 71.3402 8.15391 71.3102 8.15391C71.2596 8.15391 71.2148 8.17027 71.1745 8.20416C71.1354 8.23805 71.1147 8.28362 71.1147 8.34089C71.1147 8.35491 71.1239 8.38646 71.14 8.43788C71.1802 8.51501 71.232 8.5863 71.2953 8.64941C71.3586 8.71251 71.4276 8.76627 71.5047 8.80834C71.5806 8.85158 71.6623 8.8843 71.7463 8.90884C71.8314 8.93221 71.9143 8.94507 71.9936 8.94507H72.0236C72.1271 8.94507 72.2306 8.92988 72.333 8.89949C72.4366 8.86911 72.5298 8.8247 72.6126 8.7651C72.6966 8.70667 72.7633 8.63304 72.8128 8.5454C72.8623 8.45775 72.8876 8.35491 72.8876 8.23688V8.21584ZM70.4221 8.62136C70.3922 8.57929 70.3438 8.55942 70.2771 8.55942C70.2 8.55591 70.1356 8.5267 70.0815 8.47294C70.0286 8.41919 70.0021 8.35374 70.0021 8.27544V5.57708C70.0021 5.5128 69.9826 5.46489 69.9423 5.43217C69.9021 5.40062 69.8595 5.38426 69.8123 5.38426C69.7663 5.38426 69.7226 5.40062 69.6823 5.43217C69.6432 5.46489 69.6225 5.5128 69.6225 5.57708V8.28012C69.6225 8.37127 69.6397 8.45775 69.6731 8.53955C69.7053 8.62019 69.7525 8.69148 69.8123 8.75224C69.8721 8.81301 69.9423 8.85976 70.0217 8.89365C70.1022 8.92754 70.1874 8.94507 70.2771 8.94507C70.3438 8.94507 70.3922 8.9252 70.4221 8.88547C70.452 8.84573 70.4669 8.8025 70.4669 8.75458C70.4669 8.70667 70.452 8.66226 70.4221 8.62136ZM68.854 8.62136C68.824 8.57929 68.7757 8.55942 68.709 8.55942C68.6319 8.55591 68.5675 8.5267 68.5146 8.47294C68.4605 8.41919 68.434 8.35374 68.434 8.27544V5.57708C68.434 5.5128 68.4145 5.46489 68.3742 5.43217C68.3351 5.40062 68.2914 5.38426 68.2442 5.38426C68.1982 5.38426 68.1545 5.40062 68.1153 5.43217C68.0751 5.46489 68.0555 5.5128 68.0555 5.57708V8.28012C68.0555 8.37127 68.0716 8.45775 68.105 8.53955C68.1384 8.62019 68.1844 8.69148 68.2442 8.75224C68.3052 8.81301 68.3742 8.85976 68.4547 8.89365C68.5341 8.92754 68.6193 8.94507 68.709 8.94507C68.7757 8.94507 68.824 8.9252 68.854 8.88547C68.8839 8.84573 68.8988 8.8025 68.8988 8.75458C68.8988 8.70667 68.8839 8.66226 68.854 8.62136ZM66.8256 7.51934H65.9271V7.26458C65.9271 7.14187 65.9697 7.03787 66.0548 6.95489C66.1388 6.87192 66.24 6.82985 66.3562 6.82985H66.4069C66.5162 6.82985 66.614 6.87192 66.6979 6.95489C66.7831 7.03787 66.8256 7.14304 66.8256 7.26925V7.51934ZM67.2053 7.26575C67.2053 7.14772 67.1846 7.03903 67.1432 6.93853C67.1006 6.8392 67.0442 6.75155 66.9706 6.67793C66.897 6.60314 66.8118 6.54587 66.7129 6.50497C66.6151 6.46407 66.5116 6.4442 66.4011 6.4442H66.3516C66.2412 6.4442 66.1377 6.46524 66.0399 6.50731C65.9409 6.55055 65.8558 6.60781 65.7822 6.6826C65.7085 6.75739 65.651 6.84387 65.6096 6.94438C65.5682 7.04371 65.5475 7.14889 65.5475 7.26107V8.13287C65.5475 8.24857 65.5682 8.35491 65.6096 8.45308C65.651 8.55124 65.7085 8.63655 65.7822 8.70901C65.8558 8.78146 65.9409 8.83872 66.0399 8.88079C66.1377 8.92403 66.2412 8.94507 66.3516 8.94507H66.4011C66.5714 8.94507 66.7198 8.90066 66.8487 8.81068C66.9764 8.72186 67.0707 8.60617 67.1305 8.46242C67.1432 8.43905 67.1501 8.411 67.1501 8.37711C67.1501 8.31868 67.1305 8.27194 67.0903 8.23454C67.05 8.19715 67.0051 8.17845 66.9557 8.17845C66.9223 8.17845 66.8901 8.1878 66.8602 8.20649C66.8302 8.22519 66.8072 8.25675 66.7911 8.30115C66.7578 8.37127 66.7083 8.43204 66.6439 8.48346C66.5783 8.53371 66.4978 8.55942 66.4011 8.55942H66.3516C66.2343 8.55942 66.1354 8.51735 66.0514 8.43321C65.9685 8.34907 65.9271 8.24857 65.9271 8.1317V7.8746H67.0155C67.0684 7.8746 67.1133 7.85474 67.1501 7.81617C67.1869 7.77761 67.2053 7.73203 67.2053 7.68178V7.26575ZM64.7835 8.21584C64.7835 8.05107 64.7513 7.92135 64.6869 7.82669C64.6213 7.73203 64.5419 7.65841 64.4476 7.60699C64.3521 7.5544 64.2486 7.51583 64.1347 7.49013C64.0219 7.46442 63.9172 7.43987 63.8229 7.41416C63.7285 7.38845 63.648 7.35456 63.5836 7.31249C63.518 7.27042 63.4858 7.20615 63.4858 7.1185V7.10331C63.4892 7.02852 63.5272 6.96424 63.6008 6.91048C63.6745 6.85673 63.7803 6.82985 63.9207 6.82985H63.9402C64.053 6.82985 64.1416 6.84621 64.2048 6.87776C64.2681 6.91049 64.3268 6.9397 64.3797 6.96658C64.42 6.98645 64.4556 6.99696 64.489 6.99696C64.5431 6.99696 64.5856 6.97827 64.619 6.94087C64.6524 6.90464 64.6696 6.8614 64.6696 6.81466C64.6696 6.75272 64.6455 6.70364 64.5995 6.66507C64.5799 6.64871 64.55 6.62651 64.512 6.6008C64.474 6.57509 64.4269 6.55172 64.3717 6.52951C64.3176 6.50731 64.2543 6.48744 64.183 6.46991C64.1105 6.45238 64.0323 6.4442 63.9448 6.4442H63.9253C63.8459 6.4442 63.7584 6.45472 63.663 6.47692C63.5686 6.49913 63.48 6.53535 63.3983 6.58561C63.3167 6.63703 63.2476 6.70364 63.1913 6.78544C63.1349 6.86841 63.1061 6.97009 63.1061 7.09162C63.1061 7.25056 63.1383 7.37326 63.2039 7.45857C63.2683 7.54505 63.3489 7.61166 63.4432 7.65841C63.5387 7.70632 63.6422 7.74021 63.755 7.76242C63.8689 7.78462 63.9724 7.81033 64.0679 7.84071C64.1623 7.8711 64.2428 7.912 64.3072 7.96459C64.3717 8.01718 64.405 8.09664 64.405 8.20533V8.22052C64.4016 8.30466 64.359 8.38179 64.2773 8.45308C64.1956 8.52436 64.0783 8.55942 63.9253 8.55942H63.9C63.8068 8.55942 63.7124 8.5267 63.6158 8.46242C63.5191 8.39932 63.4386 8.32453 63.3765 8.23922C63.3523 8.20649 63.3259 8.18312 63.2959 8.17144C63.266 8.15975 63.2361 8.15391 63.2062 8.15391C63.1567 8.15391 63.1119 8.17027 63.0716 8.20416C63.0313 8.23805 63.0118 8.28362 63.0118 8.34089C63.0118 8.35491 63.0198 8.38646 63.0371 8.43788C63.0762 8.51501 63.128 8.5863 63.1913 8.64941C63.2545 8.71251 63.3247 8.76627 63.4006 8.80834C63.4777 8.85158 63.5583 8.8843 63.6434 8.90884C63.7285 8.93221 63.8102 8.94507 63.8908 8.94507H63.9207C64.0231 8.94507 64.1266 8.92988 64.2301 8.89949C64.3325 8.86911 64.4257 8.8247 64.5097 8.7651C64.5926 8.70667 64.6593 8.63304 64.7087 8.5454C64.7594 8.45775 64.7835 8.35491 64.7835 8.23688V8.21584ZM61.9154 7.51934H61.0168V7.26458C61.0168 7.14187 61.0594 7.03787 61.1445 6.95489C61.2285 6.87192 61.3298 6.82985 61.446 6.82985H61.4966C61.6059 6.82985 61.7037 6.87192 61.7877 6.95489C61.8728 7.03787 61.9154 7.14304 61.9154 7.26925V7.51934ZM62.295 7.26575C62.295 7.14772 62.2743 7.03903 62.2329 6.93853C62.1915 6.8392 62.134 6.75155 62.0603 6.67793C61.9867 6.60314 61.9016 6.54587 61.8038 6.50497C61.7048 6.46407 61.6013 6.4442 61.4908 6.4442H61.4414C61.3309 6.4442 61.2274 6.46524 61.1296 6.50731C61.0306 6.55055 60.9455 6.60781 60.8719 6.6826C60.7982 6.75739 60.7407 6.84387 60.6993 6.94438C60.6579 7.04371 60.6372 7.14889 60.6372 7.26107V8.13287C60.6372 8.24857 60.6579 8.35491 60.6993 8.45308C60.7407 8.55124 60.7982 8.63655 60.8719 8.70901C60.9455 8.78146 61.0306 8.83872 61.1296 8.88079C61.2274 8.92403 61.3309 8.94507 61.4414 8.94507H61.4908C61.6611 8.94507 61.8095 8.90066 61.9384 8.81068C62.0661 8.72186 62.1604 8.60617 62.2202 8.46242C62.2329 8.43905 62.2398 8.411 62.2398 8.37711C62.2398 8.31868 62.2202 8.27194 62.18 8.23454C62.1409 8.19715 62.0948 8.17845 62.0454 8.17845C62.012 8.17845 61.9809 8.1878 61.951 8.20649C61.9211 8.22519 61.897 8.25675 61.8808 8.30115C61.8475 8.37127 61.798 8.43204 61.7336 8.48346C61.668 8.53371 61.5875 8.55942 61.4908 8.55942H61.4414C61.3252 8.55942 61.2251 8.51735 61.1422 8.43321C61.0583 8.34907 61.0168 8.24857 61.0168 8.1317V7.8746H62.1052C62.1581 7.8746 62.203 7.85474 62.2398 7.81617C62.2766 7.77761 62.295 7.73203 62.295 7.68178V7.26575ZM59.7605 7.2003C59.7605 7.14889 59.7421 7.10448 59.7041 7.06591C59.665 7.02735 59.6213 7.00748 59.5718 7.00748H58.8574C58.7941 7.00748 58.7469 7.02735 58.7147 7.06825C58.6836 7.10915 58.6675 7.15239 58.6675 7.2003C58.6675 7.24705 58.6836 7.29146 58.7147 7.33236C58.7469 7.37209 58.7941 7.39313 58.8574 7.39313H59.382V7.98329C59.382 8.06392 59.367 8.13988 59.3371 8.20883C59.3072 8.27778 59.2658 8.33855 59.214 8.38997C59.1622 8.44256 59.1024 8.48346 59.0345 8.51384C58.9667 8.54423 58.8919 8.55942 58.8125 8.55942H58.7619C58.6825 8.55942 58.6089 8.54423 58.5398 8.51384C58.472 8.48346 58.4121 8.44256 58.3604 8.38997C58.3086 8.33738 58.2683 8.27661 58.2384 8.20766C58.2085 8.13871 58.1935 8.06275 58.1935 7.98212V6.34136C58.1935 6.26423 58.2085 6.19061 58.2384 6.12166C58.2683 6.05271 58.3086 5.99194 58.3604 5.93935C58.4121 5.88677 58.472 5.84586 58.5398 5.81548C58.6089 5.7851 58.6825 5.7699 58.7619 5.7699H58.8125C58.9759 5.7699 59.1047 5.81665 59.1991 5.91131C59.2946 6.00597 59.3544 6.12517 59.382 6.26657C59.3912 6.32383 59.4154 6.3659 59.451 6.39161C59.4878 6.41615 59.5281 6.42901 59.5718 6.42901C59.6178 6.42901 59.6616 6.41265 59.7007 6.3811C59.7409 6.34837 59.7605 6.3028 59.7605 6.24203V6.21048C59.7444 6.09244 59.7087 5.98259 59.6535 5.88092C59.5983 5.78042 59.5293 5.69277 59.4441 5.62032C59.359 5.54786 59.2623 5.4906 59.1542 5.44736C59.046 5.40529 58.9321 5.38426 58.8125 5.38426H58.7619C58.633 5.38426 58.5099 5.40997 58.3926 5.46022C58.2764 5.51164 58.1763 5.57942 58.0911 5.66589C58.006 5.75237 57.9381 5.85288 57.8887 5.96974C57.8392 6.0866 57.8139 6.21281 57.8139 6.34837V7.98562C57.8139 8.12118 57.8392 8.2474 57.8887 8.36426C57.9381 8.48112 58.006 8.58162 58.0911 8.6681C58.1763 8.75458 58.2764 8.82236 58.3926 8.87144C58.5099 8.92053 58.633 8.94507 58.7619 8.94507H58.8125C58.9425 8.94507 59.0656 8.92053 59.1818 8.87144C59.298 8.82236 59.3992 8.75458 59.4844 8.6681C59.5684 8.58162 59.6362 8.48112 59.6857 8.36426C59.7363 8.2474 59.7605 8.12118 59.7605 7.98562V7.2003ZM54.963 7.51934H54.0644V7.26458C54.0644 7.14187 54.107 7.03787 54.191 6.95489C54.2761 6.87192 54.3774 6.82985 54.4936 6.82985H54.543C54.6535 6.82985 54.7501 6.87192 54.8353 6.95489C54.9204 7.03787 54.963 7.14304 54.963 7.26925V7.51934ZM55.3426 7.26575C55.3426 7.14772 55.3219 7.03903 55.2793 6.93853C55.2379 6.8392 55.1804 6.75155 55.1079 6.67793C55.0343 6.60314 54.9492 6.54587 54.8502 6.50497C54.7524 6.46407 54.6477 6.4442 54.5384 6.4442H54.489C54.3785 6.4442 54.275 6.46524 54.176 6.50731C54.0782 6.55055 53.992 6.60781 53.9195 6.6826C53.8458 6.75739 53.7883 6.84387 53.7469 6.94438C53.7055 7.04371 53.6848 7.14889 53.6848 7.26107V8.13287C53.6848 8.24857 53.7055 8.35491 53.7469 8.45308C53.7883 8.55124 53.8458 8.63655 53.9195 8.70901C53.992 8.78146 54.0782 8.83872 54.176 8.88079C54.275 8.92403 54.3785 8.94507 54.489 8.94507H54.5384C54.7076 8.94507 54.8571 8.90066 54.9848 8.81068C55.1137 8.72186 55.208 8.60617 55.2678 8.46242C55.2805 8.43905 55.2874 8.411 55.2874 8.37711C55.2874 8.31868 55.2678 8.27194 55.2276 8.23454C55.1873 8.19715 55.1424 8.17845 55.093 8.17845C55.0596 8.17845 55.0274 8.1878 54.9975 8.20649C54.9676 8.22519 54.9446 8.25675 54.9273 8.30115C54.8951 8.37127 54.8456 8.43204 54.78 8.48346C54.7156 8.53371 54.6351 8.55942 54.5384 8.55942H54.489C54.3716 8.55942 54.2727 8.51735 54.1887 8.43321C54.1059 8.34907 54.0644 8.24857 54.0644 8.1317V7.8746H55.1528C55.2057 7.8746 55.2506 7.85474 55.2874 7.81617C55.3242 7.77761 55.3426 7.73203 55.3426 7.68178V7.26575ZM52.8668 7.26107C52.8668 7.14889 52.8461 7.04371 52.8046 6.94438C52.7632 6.84387 52.7057 6.75739 52.6321 6.6826C52.5596 6.60781 52.4733 6.55055 52.3755 6.50731C52.2777 6.46524 52.173 6.4442 52.0637 6.4442H52.0235C51.9372 6.4442 51.8532 6.45823 51.7738 6.4851C51.6944 6.51198 51.6323 6.54938 51.5886 6.59612V5.57708C51.5886 5.5128 51.569 5.46489 51.5288 5.43217C51.4896 5.40062 51.4459 5.38426 51.3988 5.38426C51.3527 5.38426 51.309 5.40062 51.2699 5.43217C51.2296 5.46489 51.2089 5.5128 51.2089 5.57708V8.75692C51.2089 8.82119 51.2296 8.86911 51.2699 8.89949C51.309 8.92988 51.3527 8.94507 51.3988 8.94507C51.4459 8.94507 51.4896 8.92988 51.5288 8.89949C51.569 8.86911 51.5886 8.82119 51.5886 8.75692V7.23536C51.5886 7.17109 51.6024 7.11383 51.6288 7.06358C51.6553 7.01216 51.6898 6.96892 51.7312 6.93386C51.7727 6.8988 51.821 6.87192 51.8762 6.85556C51.9314 6.83803 51.9867 6.82985 52.043 6.82985C52.0959 6.82985 52.15 6.83803 52.2029 6.85556C52.2559 6.87192 52.3042 6.8988 52.3479 6.93386C52.3916 6.96892 52.425 7.01449 52.4503 7.06825C52.4756 7.12201 52.4871 7.18628 52.4871 7.26107V8.75692C52.4871 8.82119 52.5078 8.86911 52.5481 8.89949C52.5872 8.92988 52.6309 8.94507 52.6769 8.94507C52.7241 8.94507 52.7678 8.92988 52.8069 8.89949C52.8472 8.86911 52.8668 8.82119 52.8668 8.75692V7.26107ZM50.3023 7.97861C50.2621 7.94589 50.2195 7.9307 50.1723 7.9307C50.1263 7.9307 50.0837 7.94589 50.0458 7.97861C50.0067 8.01016 49.986 8.06042 49.9825 8.1282C49.9756 8.24623 49.933 8.3479 49.8525 8.43204C49.7731 8.51735 49.6753 8.55942 49.558 8.55942H49.5131C49.3935 8.55942 49.2922 8.51735 49.2094 8.43321C49.1254 8.34907 49.084 8.2474 49.084 8.12937V7.25991C49.084 7.14187 49.1254 7.0402 49.2094 6.95606C49.2922 6.87192 49.3923 6.82985 49.5085 6.82985H49.558C49.6753 6.82985 49.7731 6.87075 49.8525 6.95139C49.933 7.03319 49.9756 7.1372 49.9825 7.26575C49.986 7.33002 50.0067 7.37794 50.0458 7.40832C50.0837 7.43871 50.1263 7.4539 50.1723 7.4539C50.2195 7.4539 50.2621 7.43754 50.3023 7.40598C50.3426 7.37326 50.3622 7.32535 50.3622 7.26107C50.3622 7.14889 50.3403 7.04371 50.2977 6.94438C50.254 6.84387 50.1965 6.75739 50.1252 6.6826C50.0538 6.60781 49.9687 6.55055 49.8709 6.50731C49.772 6.46524 49.6684 6.4442 49.558 6.4442H49.5085C49.3981 6.4442 49.2945 6.46524 49.1967 6.50731C49.0978 6.55055 49.0126 6.60781 48.9413 6.68027C48.87 6.75272 48.8125 6.8392 48.7699 6.93853C48.7262 7.03903 48.7043 7.14655 48.7043 7.26107V8.13287C48.7043 8.24857 48.725 8.35491 48.7664 8.45308C48.809 8.55124 48.8654 8.63655 48.939 8.70901C49.0126 8.78146 49.0978 8.83872 49.1967 8.88079C49.2945 8.92403 49.3981 8.94507 49.5085 8.94507H49.558C49.6684 8.94507 49.772 8.92286 49.8709 8.88079C49.9687 8.83755 50.0538 8.77912 50.1275 8.7055C50.2011 8.63188 50.2586 8.54657 50.3 8.4484C50.3415 8.35024 50.3622 8.24272 50.3622 8.1282C50.3622 8.06042 50.3426 8.01016 50.3023 7.97861ZM47.9381 8.21584C47.9381 8.05107 47.9059 7.92135 47.8414 7.82669C47.7759 7.73203 47.6965 7.65841 47.601 7.60699C47.5066 7.5544 47.4031 7.51583 47.2892 7.49013C47.1765 7.46442 47.0718 7.43987 46.9774 7.41416C46.8831 7.38845 46.8026 7.35456 46.7381 7.31249C46.6725 7.27042 46.6403 7.20615 46.6403 7.1185V7.10331C46.6438 7.02852 46.6818 6.96424 46.7554 6.91048C46.8279 6.85673 46.9349 6.82985 47.0752 6.82985H47.0948C47.2075 6.82985 47.2961 6.84621 47.3594 6.87776C47.4227 6.91049 47.4813 6.9397 47.5343 6.96658C47.5745 6.98645 47.6102 6.99696 47.6436 6.99696C47.6976 6.99696 47.7402 6.97827 47.7736 6.94087C47.8069 6.90464 47.8242 6.8614 47.8242 6.81466C47.8242 6.75272 47.8 6.70364 47.754 6.66507C47.7344 6.64871 47.7045 6.62651 47.6666 6.6008C47.6286 6.57509 47.5814 6.55172 47.5262 6.52951C47.4721 6.50731 47.4089 6.48744 47.3375 6.46991C47.265 6.45238 47.1868 6.4442 47.0994 6.4442H47.0798C47.0004 6.4442 46.913 6.45472 46.8175 6.47692C46.7232 6.49913 46.6346 6.53535 46.5529 6.58561C46.4712 6.63703 46.4022 6.70364 46.3458 6.78544C46.2894 6.86841 46.2607 6.97009 46.2607 7.09162C46.2607 7.25056 46.2929 7.37326 46.3585 7.45857C46.4229 7.54505 46.5034 7.61166 46.5978 7.65841C46.6933 7.70632 46.7968 7.74021 46.9095 7.76242C47.0234 7.78462 47.127 7.81033 47.2225 7.84071C47.3168 7.8711 47.3974 7.912 47.4618 7.96459C47.5262 8.01718 47.5596 8.09664 47.5596 8.20533V8.22052C47.5561 8.30466 47.5136 8.38179 47.4319 8.45308C47.3502 8.52436 47.2328 8.55942 47.0798 8.55942H47.0545C46.9613 8.55942 46.867 8.5267 46.7703 8.46242C46.6737 8.39932 46.5943 8.32453 46.531 8.23922C46.5069 8.20649 46.4804 8.18312 46.4505 8.17144C46.4206 8.15975 46.3907 8.15391 46.3608 8.15391C46.3113 8.15391 46.2664 8.17027 46.2262 8.20416C46.1859 8.23805 46.1663 8.28362 46.1663 8.34089C46.1663 8.35491 46.1744 8.38646 46.1905 8.43788C46.2308 8.51501 46.2825 8.5863 46.3458 8.64941C46.4091 8.71251 46.4793 8.76627 46.5552 8.80834C46.6323 8.85158 46.7128 8.8843 46.7979 8.90884C46.8831 8.93221 46.9648 8.94507 47.0453 8.94507H47.0752C47.1776 8.94507 47.2812 8.92988 47.3847 8.89949C47.4871 8.86911 47.5803 8.8247 47.6643 8.7651C47.7471 8.70667 47.8138 8.63304 47.8633 8.5454C47.9139 8.45775 47.9381 8.35491 47.9381 8.23688V8.21584ZM45.4772 8.62603C45.4496 8.58864 45.4047 8.56643 45.3449 8.55942C45.269 8.55241 45.2011 8.52436 45.1435 8.47528C45.0849 8.42737 45.0561 8.35842 45.0561 8.27077V6.84504H45.3253C45.3886 6.84504 45.4358 6.82518 45.468 6.78427C45.4991 6.74337 45.5152 6.70013 45.5152 6.65222C45.5152 6.60547 45.4991 6.56106 45.468 6.52016C45.4358 6.47926 45.3886 6.45939 45.3253 6.45939H45.0561V5.57708C45.0561 5.5128 45.0354 5.46489 44.9963 5.43217C44.956 5.40062 44.9123 5.38426 44.8663 5.38426C44.8191 5.38426 44.7765 5.40062 44.7363 5.43217C44.696 5.46489 44.6764 5.5128 44.6764 5.57708V6.45939H44.5016C44.4383 6.45939 44.3911 6.47926 44.3589 6.52016C44.3279 6.56106 44.3117 6.60547 44.3117 6.65222C44.3117 6.70013 44.3279 6.74337 44.3589 6.78427C44.3911 6.82518 44.4383 6.84504 44.5016 6.84504H44.6764V8.28012C44.6764 8.37127 44.6926 8.45775 44.7259 8.53955C44.7593 8.62019 44.8065 8.69148 44.8663 8.75224C44.9261 8.81301 44.9963 8.85976 45.0757 8.89365C45.1551 8.92754 45.2402 8.94507 45.3299 8.94507C45.3967 8.94507 45.445 8.9252 45.4749 8.88547C45.5048 8.84573 45.5198 8.8025 45.5198 8.75458C45.5198 8.70667 45.506 8.66343 45.4772 8.62603ZM43.5409 6.63703C43.5409 6.57275 43.5202 6.52484 43.4811 6.49212C43.4408 6.46056 43.3971 6.4442 43.3511 6.4442C43.3039 6.4442 43.2613 6.46056 43.2211 6.49212C43.1808 6.52484 43.1613 6.57275 43.1613 6.63703V8.12937C43.1613 8.2474 43.1198 8.3479 43.037 8.43321C42.953 8.51735 42.8518 8.55942 42.7321 8.55942H42.6873C42.5699 8.55942 42.471 8.51735 42.387 8.43321C42.3041 8.3479 42.2627 8.2474 42.2627 8.12937V6.63703C42.2627 6.57275 42.242 6.52484 42.2029 6.49212C42.1626 6.46056 42.1189 6.4442 42.0729 6.4442C42.0257 6.4442 41.9832 6.46056 41.9429 6.49212C41.9026 6.52484 41.8831 6.57275 41.8831 6.63703V8.13287C41.8831 8.27544 41.9049 8.39698 41.9475 8.49865C41.9912 8.60032 42.0499 8.6833 42.1224 8.74991C42.196 8.81535 42.2811 8.86443 42.3801 8.89599C42.4779 8.92871 42.5803 8.94507 42.6873 8.94507H42.7321C42.8184 8.94507 42.9001 8.93221 42.976 8.9065C43.0531 8.88079 43.1141 8.8434 43.1613 8.79548C43.1716 8.8469 43.1946 8.8843 43.2314 8.90884C43.2683 8.93221 43.3074 8.94507 43.3511 8.94507C43.3971 8.94507 43.4408 8.92871 43.4811 8.89599C43.5202 8.86443 43.5409 8.81769 43.5409 8.75692V6.63703ZM40.705 7.51934H39.8064V7.26458C39.8064 7.14187 39.849 7.03787 39.9341 6.95489C40.0181 6.87192 40.1194 6.82985 40.2356 6.82985H40.2862C40.3955 6.82985 40.4933 6.87192 40.5784 6.95489C40.6624 7.03787 40.705 7.14304 40.705 7.26925V7.51934ZM41.0846 7.26575C41.0846 7.14772 41.0639 7.03903 41.0225 6.93853C40.9811 6.8392 40.9236 6.75155 40.8499 6.67793C40.7763 6.60314 40.6912 6.54587 40.5934 6.50497C40.4944 6.46407 40.3909 6.4442 40.2804 6.4442H40.231C40.1205 6.4442 40.017 6.46524 39.9192 6.50731C39.8202 6.55055 39.7351 6.60781 39.6615 6.6826C39.589 6.75739 39.5315 6.84387 39.4889 6.94438C39.4475 7.04371 39.4268 7.14889 39.4268 7.26107V8.13287C39.4268 8.24857 39.4475 8.35491 39.4889 8.45308C39.5315 8.55124 39.589 8.63655 39.6615 8.70901C39.7351 8.78146 39.8202 8.83872 39.9192 8.88079C40.017 8.92403 40.1205 8.94507 40.231 8.94507H40.2804C40.4507 8.94507 40.5991 8.90066 40.728 8.81068C40.8557 8.72186 40.95 8.60617 41.0098 8.46242C41.0237 8.43905 41.0294 8.411 41.0294 8.37711C41.0294 8.31868 41.0098 8.27194 40.9696 8.23454C40.9305 8.19715 40.8844 8.17845 40.835 8.17845C40.8016 8.17845 40.7705 8.1878 40.7406 8.20649C40.7107 8.22519 40.6866 8.25675 40.6704 8.30115C40.6371 8.37127 40.5876 8.43204 40.5232 8.48346C40.4576 8.53371 40.3771 8.55942 40.2804 8.55942H40.231C40.1148 8.55942 40.0147 8.51735 39.9307 8.43321C39.8478 8.34907 39.8064 8.24857 39.8064 8.1317V7.8746H40.8948C40.9477 7.8746 40.9926 7.85474 41.0294 7.81617C41.0662 7.77761 41.0846 7.73203 41.0846 7.68178V7.26575ZM38.1693 7.95524C38.1693 8.03704 38.1543 8.11184 38.1244 8.18195C38.0945 8.2509 38.0531 8.31167 38.0025 8.36426C37.9507 8.41685 37.8909 8.45775 37.823 8.48813C37.7551 8.51852 37.6815 8.53371 37.6021 8.53371H36.9854V5.80029H37.6067C37.6861 5.80029 37.7597 5.81548 37.8276 5.84586C37.8966 5.87625 37.9553 5.91715 38.0048 5.96974C38.0542 6.02233 38.0945 6.0831 38.1244 6.15321C38.1543 6.22216 38.1693 6.29695 38.1693 6.37876V7.95524ZM38.5478 6.37292C38.5478 6.24203 38.5236 6.11699 38.473 6.00012C38.4235 5.88443 38.3557 5.78276 38.2717 5.69628C38.1865 5.6098 38.0865 5.54202 37.9714 5.4906C37.8564 5.44035 37.7344 5.41464 37.6044 5.41464H36.7956C36.7461 5.41464 36.7013 5.43451 36.6633 5.47307C36.6253 5.51164 36.6058 5.55721 36.6058 5.60746V8.72653C36.6058 8.77679 36.6253 8.82236 36.6633 8.86093C36.7013 8.89949 36.7461 8.91936 36.7956 8.91936H37.6044C37.7344 8.91936 37.8564 8.89365 37.9714 8.8434C38.0865 8.79315 38.1865 8.7242 38.2717 8.63772C38.3557 8.55124 38.4235 8.44957 38.473 8.33154C38.5236 8.21234 38.5478 8.08729 38.5478 7.95524V6.37292Z" fill="white"/>
</svg>
