<svg width="38" height="38" viewBox="0 0 38 38" fill="none" xmlns="http://www.w3.org/2000/svg">
<path fill-rule="evenodd" clip-rule="evenodd" d="M26.6 1.9H11.4C6.1533 1.9 1.9 6.1533 1.9 11.4V26.6C1.9 31.8467 6.1533 36.1 11.4 36.1H26.6C31.8467 36.1 36.1 31.8467 36.1 26.6V11.4C36.1 6.1533 31.8467 1.9 26.6 1.9ZM11.4 0C5.10395 0 0 5.10395 0 11.4V26.6C0 32.896 5.10395 38 11.4 38H26.6C32.896 38 38 32.896 38 26.6V11.4C38 5.10395 32.896 0 26.6 0H11.4Z" fill="white"/>
<path d="M20.4964 29V20.3473H23.458L23.8982 16.9595H20.4964V14.8016C20.4964 13.824 20.7727 13.1547 22.1962 13.1547H24V10.1343C23.1224 10.0416 22.2402 9.99679 21.3575 10.0002C18.7397 10.0002 16.9424 11.5753 16.9424 14.4669V16.9532H14V20.341H16.9488V29H20.4964Z" fill="white"/>
</svg>
