<svg width="38" height="38" viewBox="0 0 38 38" fill="none" xmlns="http://www.w3.org/2000/svg">
<path fill-rule="evenodd" clip-rule="evenodd" d="M26.6 1.9H11.4C6.1533 1.9 1.9 6.1533 1.9 11.4V26.6C1.9 31.8467 6.1533 36.1 11.4 36.1H26.6C31.8467 36.1 36.1 31.8467 36.1 26.6V11.4C36.1 6.1533 31.8467 1.9 26.6 1.9ZM11.4 0C5.10395 0 0 5.10395 0 11.4V26.6C0 32.896 5.10395 38 11.4 38H26.6C32.896 38 38 32.896 38 26.6V11.4C38 5.10395 32.896 0 26.6 0H11.4Z" fill="white"/>
<path d="M25.0587 10.971C25.0587 9.88058 25.9391 9 27.0293 9C27.2882 8.99968 27.5446 9.05044 27.7839 9.14937C28.0231 9.24831 28.2405 9.39348 28.4235 9.57657C28.6066 9.75966 28.7517 9.97707 28.8507 10.2163C28.9496 10.4556 29.0003 10.7121 29 10.971C29 12.0655 28.1196 12.942 27.0293 12.942C25.9391 12.942 25.0587 12.0614 25.0587 10.971Z" fill="white"/>
<path fill-rule="evenodd" clip-rule="evenodd" d="M18.2461 11.5048C13.6826 11.5048 10 15.188 10 19.7524C10 24.3168 13.6826 28 18.2461 28C22.8096 28 26.4922 24.3168 26.4922 19.7524C26.4922 15.188 22.8096 11.5048 18.2461 11.5048ZM18.2461 25.4294C15.1203 25.4294 12.5701 22.8787 12.5701 19.7524C12.5701 16.6262 15.1203 14.0754 18.2461 14.0754C21.3719 14.0754 23.9222 16.6262 23.9222 19.7524C23.9222 22.8787 21.3719 25.4294 18.2461 25.4294Z" fill="white"/>
</svg>
