<svg width="38" height="38" viewBox="0 0 38 38" fill="none" xmlns="http://www.w3.org/2000/svg">
<path fill-rule="evenodd" clip-rule="evenodd" d="M26.6 1.9H11.4C6.1533 1.9 1.9 6.1533 1.9 11.4V26.6C1.9 31.8467 6.1533 36.1 11.4 36.1H26.6C31.8467 36.1 36.1 31.8467 36.1 26.6V11.4C36.1 6.1533 31.8467 1.9 26.6 1.9ZM11.4 0C5.10395 0 0 5.10395 0 11.4V26.6C0 32.896 5.10395 38 11.4 38H26.6C32.896 38 38 32.896 38 26.6V11.4C38 5.10395 32.896 0 26.6 0H11.4Z" fill="white"/>
<path d="M19.5064 12.4541C19.4536 12.4456 19.3855 12.4405 19.3174 12.4354C19.0313 12.415 18.4372 12.369 18.4712 11.7347C18.4865 11.4592 18.6057 11 19.2339 11C19.3022 11.0006 19.3703 11.004 19.4383 11.0102L19.4444 11.0106C19.4933 11.0139 19.5403 11.017 19.5779 11.017C19.5933 11.017 19.6086 11.0158 19.6238 11.0136L19.6715 11.0119C23.618 11.148 27.0368 14.8418 26.9891 18.915C26.9875 18.9684 26.9907 19.03 26.994 19.0934L26.9942 19.0969C27.0061 19.369 27.0198 19.7041 26.8104 19.9303C26.7457 19.9966 26.6676 20.0484 26.5812 20.0821C26.4949 20.1159 26.4024 20.1308 26.3098 20.1259H26.2894C25.6155 20.1123 25.605 19.4667 25.5998 19.1553C25.5996 19.1417 25.5993 19.1277 25.5991 19.1145C25.5979 19.0416 25.5968 18.9742 25.5896 18.9167C25.101 14.9337 23.3371 13.0629 19.5064 12.4541Z" fill="white"/>
<path d="M25.1606 23.8673C25.2409 23.9336 25.3221 23.9988 25.404 24.0629V24.0646C26.0203 24.5493 26.7882 25.1532 26.3677 26.3775C25.8876 27.7755 24.3263 29 23.0256 29H23.0034C22.9804 28.9996 22.9575 28.9962 22.9353 28.9898L22.7736 28.949L22.7604 28.9459C22.571 28.902 22.315 28.8427 22.0721 28.7347C19.3072 27.5068 16.9202 25.8741 14.9792 23.8792C12.9941 21.8418 11.4226 19.3724 10.304 16.5391C9.91582 15.5595 9.8988 14.619 10.2563 13.8163C10.6258 12.9881 11.3664 12.3588 12.3965 12.0017C12.78 11.8596 13.2021 11.8608 13.5848 12.0051C14.4821 12.3452 16.612 15.3384 16.6631 16.3333C16.709 17.2092 16.0553 17.6667 15.7045 17.9116C15.0848 18.3452 14.9724 18.8759 15.3232 19.6922C16.0502 21.3759 17.322 22.6514 19.1011 23.4847C19.2879 23.5792 19.493 23.632 19.7022 23.6395C20.0018 23.6395 20.247 23.4864 20.4479 23.1735C20.9025 22.4643 21.4524 22.1037 22.0823 22.1037C22.5505 22.1037 23.046 22.2993 23.5976 22.6973C23.6872 22.7621 23.7768 22.8267 23.8666 22.8912L23.9212 22.9305C24.3334 23.2278 24.7595 23.5351 25.1606 23.8673Z" fill="white"/>
<path d="M19.0433 16.1752C19.2067 15.6888 19.6715 15.6769 19.8928 15.6718C20.4836 15.6565 21.1323 15.9745 21.6703 16.5391C22.2066 17.1003 22.5216 17.8044 22.5148 18.4269C22.5335 19.0221 22.3241 19.3503 21.8899 19.4048C21.8628 19.4076 21.8355 19.4087 21.8082 19.4082C21.4473 19.4082 21.1664 19.1088 21.1238 18.6769C21.0353 17.7551 20.5858 17.2568 19.7141 17.1122C19.474 17.0731 19.2084 17 19.0705 16.7619C18.9769 16.6003 18.9684 16.4031 19.0433 16.1752Z" fill="white"/>
<path d="M20.0317 13.3683C22.6281 13.6897 24.7239 16.0163 24.7035 18.5537L24.7018 18.5554C24.7014 18.5668 24.7003 18.5781 24.6984 18.5894C24.6941 18.6522 24.6941 18.7153 24.6984 18.7782C24.7069 19.0389 24.7247 19.581 24.1485 19.671C24.0906 19.6812 24.0361 19.6846 23.985 19.6846C23.3653 19.6846 23.3295 19.0911 23.3125 18.8071C23.3091 18.7305 23.3057 18.6591 23.2955 18.5996C22.9124 16.2135 22.1258 15.3683 19.7916 14.8326C19.7424 14.8192 19.6828 14.811 19.6196 14.8023C19.6106 14.8011 19.6015 14.7998 19.5924 14.7986L19.5789 14.7965C19.3327 14.7596 19.0308 14.7142 18.8569 14.472C18.8033 14.3903 18.7667 14.2987 18.7492 14.2026C18.7316 14.1065 18.7335 14.0079 18.7548 13.9125C18.7922 13.6829 18.9335 13.2986 19.4664 13.2986C19.5991 13.3022 19.7312 13.317 19.8614 13.3428L20.0317 13.3683Z" fill="white"/>
</svg>
