<svg width="13" height="14" viewBox="0 0 13 14" fill="none" xmlns="http://www.w3.org/2000/svg">
<path d="M1.72501 4.99714C1.90133 4.99465 2.07259 5.05606 2.20715 5.17003C2.3417 5.284 2.43046 5.44282 2.45701 5.61714L2.46501 5.71714L2.50001 9.26414C2.50081 9.45741 2.42494 9.6431 2.28903 9.78051C2.15312 9.91792 1.96827 9.99582 1.77501 9.99714C1.59869 9.99964 1.42743 9.93823 1.29288 9.82426C1.15832 9.71029 1.06956 9.55147 1.04301 9.37714L1.03501 9.27714L1.00001 5.73114C0.998947 5.53771 1.0747 5.35176 1.21064 5.21413C1.34657 5.07651 1.53158 4.99847 1.72501 4.99714Z" fill="black"/>
<path d="M10.25 6.84814e-05C10.63 6.84814e-05 10.944 0.275069 10.993 0.630069L11 0.730068V9.27107C10.9987 9.36825 10.9783 9.46422 10.9399 9.5535C10.9015 9.64279 10.8459 9.72363 10.7762 9.79142C10.7066 9.85921 10.6242 9.91261 10.534 9.94859C10.4437 9.98456 10.3472 10.0024 10.25 10.0011C10.071 10.0029 9.89725 9.94011 9.76077 9.8242C9.62429 9.70829 9.53419 9.54705 9.507 9.37007L9.5 9.27107V0.730068C9.5013 0.632887 9.52174 0.536915 9.56014 0.447633C9.59854 0.35835 9.65415 0.277507 9.72379 0.209719C9.79344 0.14193 9.87576 0.0885241 9.96604 0.052552C10.0563 0.01658 10.1528 -0.00125364 10.25 6.84814e-05Z" fill="black"/>
<path d="M6.25 2C6.63 2 6.943 2.281 6.993 2.646L7 2.747V9.254C6.99974 9.35223 6.98013 9.44945 6.9423 9.5401C6.90446 9.63075 6.84915 9.71306 6.7795 9.78233C6.70986 9.8516 6.62725 9.90648 6.5364 9.94383C6.44555 9.98118 6.34823 10.0003 6.25 10C6.06921 10.0001 5.89447 9.93488 5.75795 9.81636C5.62143 9.69785 5.53231 9.53401 5.507 9.355L5.5 9.254V2.747C5.5 2.335 5.836 2 6.25 2Z" fill="black"/>
<path d="M12.0009 12.75C12.0009 13.13 11.7259 13.444 11.3709 13.493L11.2709 13.5L0.729908 13.5C0.632728 13.4987 0.536755 13.4783 0.447473 13.4399C0.358191 13.4015 0.277347 13.3459 0.209558 13.2762C0.14177 13.2066 0.0883626 13.1242 0.052391 13.034C0.0164194 12.9437 -0.00141338 12.8472 -9.15855e-05 12.75C-0.00192645 12.571 0.0608711 12.3972 0.176779 12.2608C0.292686 12.1243 0.453926 12.0342 0.630907 12.007L0.729908 12L11.2709 12C11.3681 12.0013 11.4641 12.0217 11.5533 12.0601C11.6426 12.0985 11.7235 12.1541 11.7913 12.2238C11.859 12.2934 11.9125 12.3758 11.9484 12.466C11.9844 12.5563 12.0022 12.6528 12.0009 12.75Z" fill="black"/>
</svg>
