<svg width="20" height="22" viewBox="0 0 20 22" fill="none" xmlns="http://www.w3.org/2000/svg">
<path d="M5.5 1.25C5.5 1.05109 5.57902 0.860322 5.71967 0.71967C5.86032 0.579018 6.05109 0.5 6.25 0.5H12.25C12.4489 0.5 12.6397 0.579018 12.7803 0.71967C12.921 0.860322 13 1.05109 13 1.25C13 1.44891 12.921 1.63968 12.7803 1.78033C12.6397 1.92098 12.4489 2 12.25 2H6.25C6.05109 2 5.86032 1.92098 5.71967 1.78033C5.57902 1.63968 5.5 1.44891 5.5 1.25Z" fill="black"/>
<path d="M9.25 6.5C9.05109 6.5 8.86032 6.57902 8.71967 6.71967C8.57902 6.86032 8.5 7.05109 8.5 7.25V13.25C8.5 13.4489 8.57902 13.6397 8.71967 13.7803C8.86032 13.921 9.05109 14 9.25 14C9.44891 14 9.63968 13.921 9.78033 13.7803C9.92098 13.6397 10 13.4489 10 13.25V7.25C10 7.05109 9.92098 6.86032 9.78033 6.71967C9.63968 6.57902 9.44891 6.5 9.25 6.5Z" fill="black"/>
<path d="M18.25 12.5C18.25 14.8869 17.3018 17.1761 15.614 18.864C13.9261 20.5518 11.6369 21.5 9.25 21.5C6.86305 21.5 4.57387 20.5518 2.88604 18.864C1.19821 17.1761 0.25 14.8869 0.25 12.5C0.25 10.1131 1.19821 7.82387 2.88604 6.13604C4.57387 4.44821 6.86305 3.5 9.25 3.5C11.6369 3.5 13.9261 4.44821 15.614 6.13604C17.3018 7.82387 18.25 10.1131 18.25 12.5ZM16.75 12.5C16.75 10.5109 15.9598 8.60322 14.5533 7.1967C13.1468 5.79018 11.2391 5 9.25 5C7.26088 5 5.35322 5.79018 3.9467 7.1967C2.54018 8.60322 1.75 10.5109 1.75 12.5C1.75 14.4891 2.54018 16.3968 3.9467 17.8033C5.35322 19.2098 7.26088 20 9.25 20C11.2391 20 13.1468 19.2098 14.5533 17.8033C15.9598 16.3968 16.75 14.4891 16.75 12.5Z" fill="black"/>
<path d="M16.6801 2.96285C16.6109 2.89122 16.5281 2.83408 16.4366 2.79478C16.3451 2.75547 16.2467 2.73478 16.1471 2.73392C16.0476 2.73305 15.9488 2.75203 15.8566 2.78974C15.7645 2.82745 15.6807 2.88314 15.6103 2.95356C15.5399 3.02398 15.4842 3.10772 15.4465 3.19989C15.4088 3.29206 15.3898 3.39082 15.3907 3.4904C15.3915 3.58999 15.4122 3.6884 15.4515 3.77991C15.4908 3.87141 15.548 3.95417 15.6196 4.02335L17.7241 6.12785C17.7933 6.19949 17.876 6.25662 17.9675 6.29593C18.059 6.33524 18.1575 6.35593 18.257 6.35679C18.3566 6.35766 18.4554 6.33868 18.5476 6.30097C18.6397 6.26326 18.7235 6.20757 18.7939 6.13715C18.8643 6.06673 18.92 5.98299 18.9577 5.89082C18.9954 5.79865 19.0144 5.69989 19.0135 5.6003C19.0127 5.50072 18.992 5.4023 18.9527 5.3108C18.9134 5.2193 18.8562 5.13654 18.7846 5.06735L16.6801 2.96285Z" fill="black"/>
</svg>
