<svg width="38" height="38" viewBox="0 0 38 38" fill="none" xmlns="http://www.w3.org/2000/svg">
<path d="M26.6 1.4H11.4C5.87715 1.4 1.4 5.87715 1.4 11.4V26.6C1.4 32.1228 5.87715 36.6 11.4 36.6H26.6C32.1228 36.6 36.6 32.1228 36.6 26.6V11.4C36.6 5.87715 32.1228 1.4 26.6 1.4ZM0.5 11.4C0.5 5.3801 5.3801 0.5 11.4 0.5H26.6C32.6199 0.5 37.5 5.3801 37.5 11.4V26.6C37.5 32.6199 32.6199 37.5 26.6 37.5H11.4C5.3801 37.5 0.5 32.6199 0.5 26.6V11.4Z" fill="#67B23C" stroke="#67B23C"/>
<path d="M10.9457 23.255L10.6019 24.1688C12.1232 25.161 13.9061 25.6875 15.8125 25.6875C22.0247 25.6875 25.6241 20.5377 25.51 15.8089C26.0956 15.3623 26.6243 14.8074 27.0468 14.1434L27.9369 12.7448L26.4219 13.4181C26.3927 13.4311 26.3634 13.4439 26.3338 13.4565C26.4683 13.2204 26.5779 12.9723 26.6618 12.7206L27.0893 11.4383L25.9303 12.1338C25.4332 12.432 24.8849 12.6484 24.2758 12.8181C23.6169 12.2157 22.7035 11.875 21.75 11.875C19.5905 11.875 17.9077 13.7113 18.0379 15.8251C15.7532 15.553 13.7392 14.3701 12.3206 12.6787L11.8728 12.1447L11.5104 12.74C10.8319 13.8546 10.8329 15.2214 11.4022 16.3296L11.0326 16.1448L11.0004 16.9167C10.9575 17.9478 11.3885 18.9145 12.1101 19.6114L11.9623 19.593L12.2132 20.3456C12.5683 21.411 13.3625 22.2735 14.3723 22.6817C13.3226 23.2139 12.149 23.4269 10.9457 23.255Z" fill="#67B23C" stroke="#67B23C"/>
</svg>
