<svg width="24" height="24" viewBox="0 0 24 24" fill="none" xmlns="http://www.w3.org/2000/svg">
<path d="M18.0169 12.8255C17.8402 12.8255 17.6556 12.7691 17.4789 12.7289C17.1212 12.6498 16.7697 12.5448 16.4271 12.4148C16.0547 12.2789 15.6453 12.286 15.2777 12.4346C14.9101 12.5833 14.6103 12.863 14.436 13.22L14.2594 13.5824C13.4774 13.1461 12.7588 12.6042 12.1237 11.9719C11.4933 11.335 10.953 10.6143 10.5179 9.83006L10.8551 9.60459C11.2111 9.42979 11.49 9.12913 11.6383 8.76047C11.7865 8.39181 11.7935 7.9812 11.658 7.60765C11.5305 7.26335 11.4259 6.91097 11.3449 6.55281C11.3048 6.37566 11.2726 6.19046 11.2486 6.00526C11.1511 5.43807 10.8548 4.92444 10.4133 4.55686C9.97167 4.18927 9.41373 3.99189 8.83991 4.00026H6.43126C6.08525 3.997 5.74259 4.06855 5.42662 4.21004C5.11066 4.35153 4.8288 4.55964 4.60023 4.8202C4.37167 5.08076 4.20177 5.38765 4.10209 5.71998C4.00242 6.05231 3.97531 6.40228 4.02261 6.74606C4.45034 10.1194 5.98649 13.2538 8.38841 15.6539C10.7903 18.0541 13.9211 19.5833 17.2862 20H17.5913C18.1834 20.0009 18.755 19.783 19.1971 19.388C19.4511 19.1602 19.654 18.8809 19.7924 18.5686C19.9308 18.2563 20.0016 17.918 20 17.5763V15.1606C19.9901 14.6013 19.7871 14.0627 19.4254 13.6369C19.0637 13.211 18.5659 12.9242 18.0169 12.8255ZM18.4183 17.6568C18.4182 17.7711 18.3937 17.8841 18.3467 17.9882C18.2996 18.0924 18.231 18.1853 18.1453 18.2607C18.0556 18.3384 17.9507 18.3964 17.8373 18.4311C17.724 18.4658 17.6046 18.4763 17.487 18.462C14.4801 18.0754 11.6871 16.6958 9.54863 14.5408C7.41013 12.3859 6.04781 9.57829 5.67655 6.56086C5.66377 6.44291 5.67497 6.32358 5.70947 6.2101C5.74397 6.09661 5.80106 5.99132 5.87727 5.90058C5.95251 5.81469 6.04512 5.74585 6.14895 5.69864C6.25278 5.65144 6.36544 5.62695 6.47944 5.6268H8.88808C9.07479 5.62264 9.25711 5.68388 9.40365 5.79998C9.55019 5.91609 9.65179 6.0798 9.69096 6.26293C9.72308 6.48302 9.76322 6.70043 9.8114 6.91516C9.90415 7.33962 10.0276 7.75676 10.1807 8.16325L9.05669 8.68664C8.96058 8.73087 8.87413 8.79369 8.8023 8.87152C8.73047 8.94934 8.67468 9.04063 8.63812 9.14014C8.60157 9.23965 8.58497 9.34542 8.58929 9.45138C8.5936 9.55734 8.61875 9.6614 8.66327 9.75759C9.81878 12.2399 11.8084 14.2353 14.2835 15.3941C14.4789 15.4747 14.6982 15.4747 14.8936 15.3941C14.9938 15.3582 15.0858 15.3027 15.1644 15.2308C15.2429 15.1589 15.3065 15.0721 15.3513 14.9754L15.8491 13.8481C16.2641 13.997 16.6878 14.1207 17.1176 14.2185C17.3317 14.2668 17.5485 14.3071 17.768 14.3393C17.9506 14.3786 18.1138 14.4805 18.2296 14.6274C18.3453 14.7744 18.4064 14.9573 18.4022 15.1445L18.4183 17.6568Z" fill="white"/>
</svg>
